<svg width="2603" height="1350" viewBox="0 0 2603 1350" fill="none" xmlns="http://www.w3.org/2000/svg">
<path d="M1354.28 787.868C1377.01 811.68 1406.38 823.586 1442.36 823.586C1458.47 823.586 1471.63 820.453 1481.84 814.187C1492.04 807.92 1497.15 799.147 1497.15 787.868C1497.15 777.842 1494.1 770.86 1488.02 766.921C1481.75 762.803 1473.42 760.565 1463.04 760.207L1413.63 755.91C1390.17 753.762 1371.1 745.884 1356.42 732.277C1341.38 719.029 1333.69 700.498 1333.33 676.687C1333.69 648.041 1343.8 626.556 1363.67 612.233C1383.01 597.91 1407.54 590.749 1437.26 590.749C1450.15 590.749 1461.7 591.555 1471.9 593.166C1482.11 594.956 1491.69 597.463 1500.64 600.686C1517.83 607.668 1533.22 617.067 1546.83 628.884L1512.19 669.436C1501.44 661.737 1490.07 655.381 1478.08 650.368C1466.26 645.892 1452.66 643.654 1437.26 643.654C1419.71 643.654 1407.45 646.787 1400.47 653.054C1393.13 659.32 1389.46 667.377 1389.46 677.224C1389.1 683.49 1391.87 688.951 1397.78 693.605C1403.15 698.798 1412.64 702.11 1426.25 703.542L1472.44 707.033C1501.44 709.182 1522.39 717.954 1535.28 733.352C1547.28 748.391 1553.27 767.458 1553.27 790.554C1552.92 817.588 1541.91 838.446 1520.24 853.127C1498.76 868.166 1471.28 875.865 1437.8 876.223C1392.32 876.223 1351.41 859.572 1315.07 826.271L1354.28 787.868ZM1610.21 873V481.447H1666.34V623.781C1676.54 613.934 1687.73 605.878 1699.91 599.611C1711.18 593.703 1723.99 590.749 1738.31 590.749C1772.5 591.644 1797.48 603.819 1813.24 627.272C1820.93 636.045 1826.22 647.593 1829.08 661.916C1831.77 676.06 1833.11 699.872 1833.11 733.352C1833.11 766.294 1831.77 789.927 1829.08 804.25C1826.22 819.289 1820.93 831.195 1813.24 839.968C1805.54 850.71 1795.42 859.304 1782.89 865.749C1770.54 872.373 1755.68 875.865 1738.31 876.223C1708.95 875.507 1684.96 864.675 1666.34 843.728V873H1610.21ZM1721.39 646.877C1708.86 646.877 1698.92 649.473 1691.58 654.665C1683.88 659.857 1678.24 666.66 1674.66 675.075C1671.26 683.49 1669.02 692.621 1667.95 702.468C1666.87 712.315 1666.34 722.609 1666.34 733.352C1666.34 743.199 1666.87 753.225 1667.95 763.43C1669.02 773.814 1671.26 783.213 1674.66 791.628C1678.24 800.043 1683.88 806.846 1691.58 812.038C1698.92 817.409 1708.86 820.095 1721.39 820.095C1734.64 820.095 1745.11 817.588 1752.81 812.575C1760.51 807.383 1765.97 800.759 1769.19 792.702C1772.77 784.287 1775.19 774.799 1776.44 764.235C1776.8 754.209 1776.98 743.915 1776.98 733.352C1776.98 722.251 1776.8 711.42 1776.44 700.856C1775.19 691.009 1772.77 681.879 1769.19 673.464C1765.97 665.049 1760.51 658.425 1752.81 653.591C1745.11 649.115 1734.64 646.877 1721.39 646.877ZM1888.97 748.659V692.531H2054.4V748.659H1888.97ZM2283.74 791.091L2325.1 827.883C2312.93 841.848 2298.6 853.216 2282.13 861.989C2265.66 871.12 2246.59 875.865 2224.93 876.223C2191.99 876.223 2163.07 865.033 2138.19 842.653C2112.41 820.274 2099.16 784.019 2098.44 733.889C2099.16 683.221 2112.41 646.519 2138.19 623.781C2163.07 601.402 2191.99 590.391 2224.93 590.749C2246.59 591.107 2265.66 595.583 2282.13 604.177C2298.6 612.95 2312.93 624.676 2325.1 639.357L2283.74 676.149C2269.6 657.351 2250.71 647.593 2227.08 646.877C2179.45 646.161 2155.28 675.165 2154.57 733.889C2155.28 792.255 2179.45 820.99 2227.08 820.095C2250.71 819.737 2269.6 810.069 2283.74 791.091ZM2364.31 805.324V481.447H2420.44V801.027C2420.44 813.739 2427.42 820.095 2441.38 820.095H2460.72V873H2435.75C2415.33 873 2398.51 867.897 2385.26 857.692C2371.29 847.308 2364.31 829.852 2364.31 805.324ZM2507.72 873V594.24H2563.85V873H2507.72ZM2507.72 537.575V481.447H2563.85V537.575H2507.72Z" fill="#FFBD5D"/>
<path d="M279.875 412.075C278.032 421.114 275.406 430.117 273.578 439.891C257.754 435.088 241.385 429.534 230.056 416.287C219.614 404.078 213.284 390.367 213.285 374.198C213.285 373.503 213.807 369.627 214.183 367.866C214.626 364.763 215.626 364.174 218.682 363.48C222.117 363.48 222.96 365.534 223.179 368.961C228.726 384.247 233.981 390.477 250.179 403.076C250.179 403.076 271.812 401.945 280.768 403.976L279.875 412.075Z" fill="#EA9F8F"/>
<path d="M813.517 289.688C834.338 289.563 854.627 293.75 873.032 303.675C876.855 305.737 880.046 308.898 883.71 313.086C885.356 325.949 886.758 339.911 886.582 352.826C886.352 369.672 868.185 379.283 854.879 386.959C823.431 405.103 799.122 444.967 800.918 465.251C807.218 484.953 821.301 482.007 845.014 489.548L867.511 500.347C874.743 510.603 884.609 533.644 884.609 544.443C885.706 565.777 875.091 574.417 855.49 583.875C838.98 591.841 821.924 594.187 804.347 596.052C798.228 596.701 793.34 599.201 793.442 607.088C797.374 616.274 807.208 629.706 807.736 639.839C808.782 659.889 809.467 679.976 809.548 700.053C809.617 717.238 808.658 734.426 808.223 751.614C807.588 776.723 806.828 801.832 806.52 826.945C806.418 835.255 808.048 843.583 808.01 851.899C807.821 894.243 809.949 936.503 809.882 978.805C809.851 998.063 808.617 1017.32 808.288 1036.58C807.994 1053.81 808.266 1071.96 807.354 1089.15C806.469 1105.81 806.267 1121.6 804.199 1138.3C801.698 1158.48 791.919 1172.58 779.534 1185.52C764.947 1204.53 742.026 1210.32 720.863 1217.26C712.831 1219.89 705.709 1224.62 697.538 1225.5C680.782 1227.31 663.152 1226.47 646.343 1227.94C626.552 1229.67 600.465 1228.76 580.732 1225.89C561.381 1223.08 541.489 1219.71 522.129 1216.97C509.941 1215.24 498.478 1213.9 487.234 1208.06C469.273 1198.74 450.384 1192 430.157 1187.79C428.853 1175.45 428.149 1163.03 425.658 1151.8C422.97 1139.68 415.772 1129.35 403.3 1125.92C395.819 1123.87 387.567 1125.43 379.763 1124.8C385.255 1117.38 390.073 1110.2 395.961 1103.2C404.102 1099.42 412.35 1093.69 420.258 1091.5C448.444 1083.72 476.189 1085.65 503.944 1096.9C510.093 1099.4 516.553 1098.37 520.143 1090.6C522.134 1086.3 526.963 1083.75 530.941 1080.7C559.302 1058.97 589.03 1056.29 622.732 1063.61C635.922 1069.87 649.658 1074.11 663.377 1079.77C673.801 1084.08 684.215 1089.78 694.372 1094.47C697.295 1095.82 701.965 1094.37 705.526 1094.33C700.102 1081.97 687.51 1076.16 675.826 1069.93C665.126 1064.22 655.117 1060.05 644.329 1054.61C649.075 1050.41 653.062 1046.57 657.538 1042.09C658.002 1041.63 697.825 1008.36 716.747 991.335C721.98 986.626 726.512 974.582 732.526 971.816L738.82 963.717C744.793 957.426 750.523 946.7 750.523 946.7C750.523 946.7 757.596 939.784 757.723 938.601C758.623 934.102 759.895 926.147 757.263 923.476C753.556 919.716 746.273 917.382 740.857 917.908C733.183 918.654 725.469 925.412 718.392 924.543C702.371 922.578 688.684 929.831 674.446 933.439C647.165 940.352 620.134 936.611 593.277 934.699C574.804 933.384 551.147 925.921 538.548 920.522C538.876 916.685 538.223 913.507 539.041 909.782C538.188 893.935 539.539 878.795 536.287 863.946C533.195 849.829 525.373 837.875 509.349 833.231C510.99 830.364 513.431 827.069 515.643 826.032C525.887 821.226 534.992 814.964 545.856 812.419C591.436 801.742 637.358 795.376 684.107 805.82C687.624 806.606 692.144 802.911 696.197 801.298C693.557 798.62 691.257 794.143 688.218 793.568C673.34 790.75 658.244 787.087 643.263 787.254C619.172 787.523 594.94 789.368 571.086 792.779C548.358 796.03 525.923 802.095 506.559 815.4C498.598 820.87 490.167 826.639 487.657 837.836C484.272 839.719 481.268 841.053 478.351 842.557C466.703 848.562 456.935 856.1 451.46 869.309C444.437 883.086 444.663 896.332 451.122 909.619C461.088 930.12 477.921 941.915 499.016 948.709C502.254 949.753 505.21 951.676 508.141 953.866C511.142 959.022 513.709 964.135 517.628 967.802C521.222 971.164 526.234 973.042 530.692 975.442C539.771 980.329 548.899 985.126 557.354 990.005C543.42 989.807 529.74 989.456 515.643 988.915C495.421 988.063 476.963 987.365 457.15 986.215C453.201 971.562 449.219 957.33 446.356 943.019C431.242 881.8 420.258 820.632 409.459 758.539C407.828 750.455 405.475 742.822 403.16 734.241C395.351 718.473 382.641 709.806 366.047 709.47C335.273 708.846 304.367 709.908 273.574 709.044C272.382 700.415 271.158 691.658 269.974 683.847C270.519 670.484 269.85 656.36 272.219 643.15C276.074 631.453 278.629 620.74 282.573 610.054C282.573 610.054 284.914 602.143 280.771 600.074C257.261 588.332 224.965 580.01 223.177 548.779C222.693 540.326 222.011 532.141 221.379 523.696C228.911 508.819 241.647 499.699 256.42 493.481C272.958 486.519 273.058 486.941 273.092 469.975C273.11 460.821 273.449 451.668 273.64 441.001C275.481 430.448 277.302 421.131 279.875 412.075L280.768 403.976C277.098 403.351 263.678 408.476 250.179 403.076C227.682 387.778 224.082 373.379 223.179 368.961C222.279 365.362 222.251 363.934 218.682 363.48C215.626 364.174 214.626 364.763 214.183 367.866C213.222 364.38 220.247 345.383 223.179 338.283C228.757 324.772 239.577 315.994 250.883 307.757C269.595 294.124 291.298 289.096 315.785 287.781C313.392 282.594 311.273 278.596 309.656 274.404C294.685 235.603 282.629 196.14 276.782 154.675C272.034 120.993 271.924 87.9161 281.165 55.2223C287.451 32.983 298.962 14.9798 321.495 4.41807C341.818 -5.10762 367.88 3.71903 379.543 24.0231C385.785 34.889 387.996 48.1543 391.461 61.1121C390.132 62.6608 388.719 62.8683 388.723 63.4941C388.838 81.9916 388.324 100.536 389.498 118.971C390.518 134.973 393.283 150.88 395.695 166.765C396.309 170.806 401.36 179.9 401.36 179.9C401.36 179.9 411.231 172.334 415.759 169.101C425.991 166.636 436.653 163.841 446.981 161.881C453.287 160.684 460.05 161.217 467.953 161.002C473.824 162.277 478.037 162.923 482.573 164.601C492.48 170.768 500.353 175.4 504.852 162.801C506.652 146.603 487.347 136.142 476.95 124.024C464.961 110.05 468.616 92.9636 466.133 77.1451C474.367 62.0353 488.451 56.5037 504.298 54.1647C536.313 49.4392 563.087 62.8548 588.986 79.0519C615.635 95.7186 638.405 116.325 654.956 143.417C660.118 151.867 666.166 159.777 672.605 169.084C672.605 150.2 673.191 133.145 672.47 116.145C671.331 89.2929 668.387 62.2562 676.959 36.1778C688.696 0.470413 732.452 -11.7506 760.74 12.9456C784.229 33.4526 795.27 65.671 801.818 95.3085C800.512 97.063 798.9 97.6495 798.891 98.575C798.716 116.915 798.838 135.258 798.554 153.596C798.365 165.822 797.63 178.039 797.151 190.261C796.583 204.757 796.509 219.292 795.344 233.74C793.957 250.951 791.509 268.074 789.904 285.271C789.723 287.212 792.569 291.408 793.717 291.406C800.43 291.394 806.805 290.296 813.517 289.688ZM350.966 136.704C347.796 127.649 341.963 114.666 331.157 113.582C316.114 112.074 311.368 138.422 311.368 138.422C313.003 151.957 313.368 168.111 317.076 181.292C322.949 202.17 328.832 223.047 334.863 243.88C336.851 250.746 340.927 251.242 346.164 246.93C349.602 244.099 352.885 240.992 356.638 238.652C362.289 235.128 370.521 220.448 368.962 214.014C364.556 195.839 359.255 179.716 354.565 160.102C353.332 152.793 352.225 145.366 350.966 136.704ZM755.923 136.704C753.575 124.129 748.673 116.587 737.023 114.125C728.742 112.375 721.605 116.902 718.197 123.395C715.61 128.323 715.902 132.932 714.525 140.222C715.078 149.321 715.848 158.232 716.325 169.019C716.348 186.034 715.915 204.897 715.805 221.911C715.769 227.51 717.307 231.381 722.959 233.878C731.84 237.803 740.909 242.829 749.609 247.171C751.865 248.297 754.35 248.963 756.73 249.84C764.324 228.273 758.626 200.597 759.523 176.3C758.428 163.771 757.058 150.701 755.923 136.704Z" fill="#FFD8AF"/>
<path d="M54.9682 1026C51.5938 1011.88 47.8366 997.833 44.9209 983.617C37.735 948.582 30.8988 913.475 23.9906 878.383C15.9186 837.378 7.45112 796.441 0.296254 755.276C-1.08348 747.338 2.68719 738.584 5.39951 729.66C14.9813 728.536 23.4219 727.265 31.749 727.255C134.631 727.131 237.514 727.259 340.396 727.043C350.298 727.022 358.542 729.851 365.888 736.112C371.475 740.875 377.429 744.952 383.361 750.358C398.585 834.135 409.886 919.004 431.306 1001.51C431.237 1024.68 422.853 1033.05 400.406 1033.14C398.307 1033.15 396.207 1033.13 394.108 1033.13C321.417 1033.15 248.727 1033.16 176.036 1033.17C144.756 1033.18 113.475 1033.1 82.1951 1033.23C74.8395 1033.26 67.9494 1033.02 62.2507 1027.21C60.8577 1025.79 57.4496 1026.35 54.9682 1026ZM175.713 882.142C175.454 897.405 182.057 909.794 192.325 920.383C197.527 925.747 204.152 929.677 211.649 925.873C217.876 922.714 223.053 922.608 229.429 925.393C237.654 928.985 244.823 925.798 249.613 918.544C253.621 912.476 259.533 905.446 254.17 898.316C245.804 887.194 242.196 876.924 253.074 865.986C242.865 854.148 231.834 851.64 218.349 857.086C215.542 858.22 211.759 858.871 209.028 857.953C189.235 851.301 176.343 859.872 175.713 882.142ZM210.268 851.419C213.561 850.563 217.234 850.366 220.076 848.727C228.504 843.867 230.91 837.166 228.733 826.901C213.75 825.784 206.084 842.23 210.268 851.419Z" fill="#A8A3A7"/>
<path d="M99.8896 696.364C99.9816 695.913 100.418 695.505 101.316 694.466C107.929 686.49 113.312 679.568 119.688 672.066C134.806 659.21 151.245 648.615 170.075 643.335C187.476 638.455 205.668 639.119 223.177 642.369L224.077 643.269C225.861 647.542 226.424 651.607 228.477 654.529C241.322 672.817 254.148 690.792 266.372 708.962C211.533 708.969 157.5 709.757 103.489 709.044C102.277 704.616 101.095 700.106 99.8896 696.364Z" fill="#FFD8AF"/>
<path d="M103.489 709.044C157.493 709.07 210.839 708.931 266.372 708.962C269.285 708.937 272.19 709.074 273.574 709.044C304.36 709.09 334.666 708.683 365.44 709.307C382.034 709.644 395.969 718.287 403.16 734.241C396.282 740.419 389.63 745.001 383.361 750.358C377.775 745.593 371.475 740.875 365.888 736.112C358.542 729.851 350.298 727.022 340.396 727.043C237.514 727.259 134.631 727.131 31.749 727.255C23.4219 727.265 14.502 728.978 5.39951 729.66C11.0736 714.604 25.2179 710.256 39.4035 709.399C56.606 708.36 74.7101 709.058 93.5956 709.044C98.3657 709.045 100.342 709.073 103.489 709.044Z" fill="#BEB2BD"/>
<path d="M223.177 642.369C205.923 639.673 187.476 638.455 170.075 643.335C151.245 648.615 135.489 659.448 119.688 672.066C107.166 661.742 106.718 646.68 103.796 633.306C103.264 630.869 101.95 628.471 100.79 626.171C110.381 598.494 135.869 585.043 165.236 594.499C189.835 602.42 210.289 618.622 223.177 642.369Z" fill="#6A4C50"/>
<path d="M813.517 289.688C813.517 289.688 800.43 291.394 793.717 291.406C792.569 291.408 789.723 287.212 789.904 285.271C791.509 268.074 793.957 250.951 795.344 233.74C796.509 219.292 796.583 204.757 797.151 190.261C797.63 178.039 798.365 165.822 798.554 153.596C798.838 135.258 798.716 116.915 798.891 98.575C798.9 97.6495 800.574 96.3493 801.818 95.3085C814.987 138.304 817.89 182.842 816.409 227.474C815.738 247.689 814.546 268.712 813.517 289.688Z" fill="#EA9F8F"/>
<path d="M415.759 169.101C411.345 173.084 401.36 179.9 401.36 179.9C401.36 179.9 396.309 170.806 395.695 166.765C393.283 150.88 390.518 134.973 389.498 118.971C388.324 100.536 388.838 81.9916 388.723 63.4941C388.719 62.8683 390.17 61.9268 391.461 61.1121C397.526 85.0189 402.567 109.418 407.925 133.512C410.442 144.829 413.147 157.029 415.759 169.101Z" fill="#EA9F8F"/>
<path d="M482.349 164.52C477.935 163.486 473.004 162.303 467.953 161.002C455.98 143.095 447.666 122.995 453.553 100.626C457.178 104.064 461.792 108.888 462.767 113.372C466.181 129.067 474.607 140.88 487.049 150.579C491.519 154.064 499.212 154.83 499.212 163.794C499.212 170.603 488.085 164.52 482.349 164.52Z" fill="#EA9F8F"/>
<path d="M273.574 709.044L266.372 708.962C252.619 690.787 241.322 672.817 228.477 654.529C226.424 651.607 225.325 647.422 224.077 643.269C234.543 639.51 239.476 648.387 244.772 654.005C253.362 663.117 261.675 673.648 269.974 683.847C271.475 692.171 272.382 700.415 273.574 709.044Z" fill="#EA9F8F"/>
<path d="M100.79 626.171C102.346 627.973 103.265 630.87 103.798 633.307C106.72 646.681 107.734 661.628 119.688 672.066C114.563 679.691 107.678 687.132 101.316 694.466C92.3222 672.452 92.413 648.976 100.79 626.171Z" fill="#542F3F"/>
<path d="M482.351 164.52C487.964 163.875 499.212 170.783 499.212 163.794C499.212 154.83 491.519 154.064 487.049 150.579C474.607 140.88 466.181 129.067 462.767 113.372C461.792 108.888 456.993 104.785 453.553 100.626C451.078 94.3294 463.155 81.9091 466.151 77.2288C469.173 92.7198 472.45 116.825 476.95 124.024C487.347 136.142 506.674 146.408 504.852 162.801C500.353 175.4 492.258 170.686 482.351 164.52Z" fill="#FDC5A6"/>
<path fill-rule="evenodd" clip-rule="evenodd" d="M163.935 1075.56C174.706 1071.09 185.572 1070.95 196.411 1070.81C204.161 1070.71 211.898 1070.61 219.577 1068.92C222.75 1068.23 225.656 1066.69 228.576 1065.32C228.581 1062.71 221.946 1060.91 220.155 1060.01C214.625 1059.92 183.656 1059.93 183.656 1059.93C177.946 1062.52 172.353 1065.01 166.295 1066.64C156.754 1069.2 147.616 1071.66 142.185 1081.52C122.736 1083.61 104.031 1089.05 88.4101 1099.66C75.4416 1108.47 62.7949 1118.64 62.9941 1136.42C67.8143 1134.15 73.1792 1131.39 77.392 1129.22C80.8312 1124.7 82.5035 1118.74 86.9469 1115.67C105.868 1102.62 128.188 1094.92 151.184 1090.52C152.989 1086.1 154.644 1079.41 163.935 1075.56Z" fill="#EA9F8F"/>
<path fill-rule="evenodd" clip-rule="evenodd" d="M213.114 553.837C212.208 551.974 210.484 550.555 208.778 549.679C208.086 558.419 207.895 567.415 207.026 576.118C206.08 581.645 208.143 588.478 209.678 593.774C220.896 622.411 243.536 637.729 272.219 643.15C274.556 636.386 276.955 628.926 278.876 622.336C280.087 618.179 281.291 614.139 282.573 610.054C278.587 607.901 273.274 605.092 269.974 609.154C258.338 606.589 245.671 601.992 240.413 598.158C235.356 594.47 233.049 593.82 229.87 587.5C229.87 587.5 216.794 561.408 213.114 553.837Z" fill="#EA9F8F"/>
<path d="M103.489 709.044C103.489 709.044 97.538 709.061 93.5956 709.044C94.899 704.994 97.2381 700.658 99.8896 696.364C101.648 699.815 102.277 704.616 103.489 709.044Z" fill="#EA9F8F"/>
<path fill-rule="evenodd" clip-rule="evenodd" d="M510.252 405.776C476.59 400.457 411.524 381.149 383.995 343.682C383.995 343.682 371.122 353.581 365.119 356.344C353.123 364.38 349.221 368.712 343.546 376.172C335.402 383.867 331.008 390.941 327.026 401.276C324.194 408.629 322.1 418.746 322.352 426.646C322.352 426.646 322.181 447.93 322.182 453.634V453.636C322.182 453.636 321.976 493.599 321.976 503.338C321.976 508.799 321.939 514.261 321.902 519.724C321.804 534.059 321.707 548.395 322.275 562.704C324.258 612.697 367.248 655.522 417.759 655.255C472.516 654.966 527.275 655.062 582.033 655.158C594.695 655.18 607.358 655.202 620.02 655.22C639.434 655.247 658.226 652.29 675.014 642.18C705.532 623.803 723.317 596.473 724.751 560.937C725.73 536.689 725.53 512.396 725.329 488.101C725.211 473.729 725.092 459.355 725.218 444.989C725.439 419.675 719.762 396.32 703.553 376.504C690.874 361.002 676.495 346.958 655.766 343.682C619.605 386.238 510.252 405.776 510.252 405.776Z" fill="#FEFBF2"/>
<path d="M383.995 343.682C387.6 341.964 394.159 347.2 396.604 350.277C411.826 360.963 427.44 371.824 444.414 379.098C465.4 388.091 487.982 391.336 511.371 391.141C542.866 390.878 573.259 387.224 600.767 371.28C614.263 363.457 640.733 343.601 640.733 343.601L655.766 343.682C620.828 386.935 545.613 405.776 510.252 405.776C480.82 405.776 407.756 396.326 383.995 343.682Z" fill="#EFCBCF"/>
<path d="M450.853 869.145C455.849 856.411 466.095 848.399 477.743 842.394C480.66 840.891 483.665 839.556 487.736 837.571C495.548 835.724 502.643 834.505 509.349 833.231C525.351 837.216 532.587 849.667 535.679 863.783C538.932 878.632 538.839 893.984 539.041 909.782C535.053 909.987 532.01 909.42 529.187 909.701C521.271 910.487 513.356 911.478 505.519 912.839C483.432 916.675 468.078 905.846 456.448 889.108C452.692 883.703 452.537 875.99 450.853 869.145Z" fill="#6A4C50"/>
<path d="M538.548 920.522C536.839 927.011 533.548 933.793 530.538 939.771C524.627 946.174 519.171 955.097 507.548 953.737C503.809 952.22 501.647 949.591 498.408 948.547C477.314 941.753 460.481 929.958 450.514 909.457C444.055 896.17 443.83 882.923 450.853 869.145C453.015 875.516 452.692 883.703 456.448 889.108C468.078 905.846 483.432 916.675 505.519 912.839C513.356 911.478 521.271 910.487 529.187 909.701C532.01 909.42 535.507 909.415 539.041 909.782C539.329 912.984 538.876 916.685 538.548 920.522Z" fill="#542F3F"/>
<path d="M759.523 176.3C759.559 199.004 763.12 245.511 756.821 250.011C754.441 249.133 751.865 248.297 749.609 247.171C740.909 242.829 731.84 237.803 722.959 233.878C717.307 231.381 715.769 227.51 715.805 221.911C715.915 204.897 715.67 187.156 716.325 169.019C721.519 168.158 722.613 171.53 727.129 171.8C736.298 172.349 745.468 164.169 753.226 170.901C754.793 172.261 757.712 175.221 759.523 176.3Z" fill="#FCA199"/>
<path d="M354.565 160.102C359.301 178.197 364.556 195.839 368.962 214.014C370.521 220.448 362.014 235.688 356.363 239.211C352.61 241.552 349.902 243.58 346.464 246.411C341.227 250.723 336.851 250.746 334.863 243.88C328.832 223.047 322.342 202.007 316.469 181.129C315.667 178.279 314.904 174.303 314.967 170.819C319.847 177.663 325.253 175.696 330.393 172.471C337.931 167.742 341.804 154.784 354.565 160.102Z" fill="#FCA199"/>
<path d="M395.961 1103.2C397.92 1092.62 410.998 1085.22 424.981 1081.11C450.565 1073.58 476.79 1078.88 502.288 1074.64C534.549 1060.01 561.596 1044.05 598.98 1047.71C609.546 1048.74 620.454 1051.53 631.734 1053.64C629.486 1057.27 627.496 1063.37 622.732 1063.61C589.224 1056.79 559.408 1059.15 530.941 1080.7C526.948 1083.73 522.141 1086.33 520.143 1090.6C516.539 1098.31 510.116 1099.38 503.944 1096.9C476.085 1085.74 447.566 1084.7 419.275 1092.41C411.337 1094.58 404.133 1099.45 395.961 1103.2Z" fill="#C9787A"/>
<path d="M509.349 833.231C502.665 835.164 495.142 836.272 487.749 837.649C489.153 827.024 497.991 820.707 505.953 815.237C525.316 801.932 547.751 795.867 570.479 792.616C594.333 789.205 618.565 787.36 642.657 787.091C657.637 786.924 674.449 790.735 689.328 793.553C691.944 794.602 693.887 798.974 696.527 801.653C692.474 803.265 687.018 806.443 683.5 805.657C636.752 795.213 590.922 801.775 545.343 812.451C534.479 814.996 525.887 821.226 515.643 826.032C513.431 827.069 510.99 830.364 509.349 833.231Z" fill="#EA9F8F"/>
<path d="M759.523 176.3C757.658 176.052 754.793 172.261 753.226 170.901C745.468 164.169 736.298 172.349 727.129 171.8C722.613 171.53 721.481 169.002 716.325 169.019C715.132 160.199 714.4 150.213 714.525 140.222C729.692 129.023 737.837 128.632 755.923 136.704C757.018 149.234 758.482 162.939 759.523 176.3Z" fill="#F68A8A"/>
<path d="M354.565 160.102C341.78 155.544 337.931 167.742 330.393 172.471C325.253 175.696 319.786 178.382 314.967 170.819C313.123 160.364 311.911 149.588 311.368 138.422C325.432 125.657 335.822 132.412 350.966 136.704C352.199 144.013 353.355 152.034 354.565 160.102Z" fill="#F68A8A"/>
<path fill-rule="evenodd" clip-rule="evenodd" d="M867.511 500.347C887.439 509.18 902.611 528.163 902.614 548.779C906.21 574.058 898.111 585.757 893.615 589.275C890.012 594.756 856.052 610.723 852.219 610.723C846.816 611.854 821.647 612.847 806.324 614.472C803.604 631.211 829.718 655.949 831.518 667.648C835.631 675.069 837.82 681.305 837.821 684.665C837.821 684.665 905.552 1026.97 825.223 1174.21C777.669 1277.27 639.281 1255.97 547.256 1250.51C533.08 1248.62 514.335 1243.99 495.853 1238.51C461.537 1228.34 428.127 1215.2 426.555 1211.11C426.039 1201.3 427.502 1197.67 428.355 1193.11C428.652 1191.52 430.157 1187.79 430.157 1187.79C450.262 1191.18 469.273 1198.74 487.234 1208.06C497.81 1213.55 510.681 1215.36 522.129 1216.97C532.459 1218.43 542.77 1219.97 553.077 1221.59L553.08 1221.59C562.09 1223 571.707 1224.58 580.732 1225.89C600.296 1228.74 626.608 1229.66 646.343 1227.94C654.148 1227.26 662.002 1226.97 669.851 1226.77H669.854C678.906 1226.54 688.564 1226.47 697.538 1225.5C705.709 1224.62 712.831 1219.89 720.863 1217.26C736.125 1210.37 763.785 1206.05 779.534 1185.52C789.075 1173.03 801.895 1156.89 804.199 1138.3C806.228 1121.92 805.418 1103.28 807.354 1089.15C807.919 1078.49 807.842 1067.74 807.721 1057.07V1057.07C807.643 1050.18 807.565 1043.3 807.682 1036.42C807.823 1028.15 808.131 1019.88 808.439 1011.61C808.849 1000.62 809.258 989.633 809.276 978.642C809.295 966.291 808.736 953.938 808.177 941.586C807.088 917.523 806.035 898.68 806.841 875.024C807.105 867.262 807.369 859.5 807.404 851.737C807.441 843.421 805.812 835.093 805.914 826.783C806.155 807.088 806.675 787.396 807.194 767.705L807.194 767.701C807.337 762.285 807.48 756.868 807.617 751.452C807.764 745.654 807.97 739.857 808.177 734.059L808.177 734.045C808.582 722.66 808.988 711.274 808.942 699.891C808.861 679.814 808.176 659.727 807.13 639.677C806.565 628.846 790.902 617.725 793.442 607.088C792.994 599.611 797.621 596.539 803.74 595.89C821.316 594.025 838.373 591.679 854.883 583.713C874.483 574.255 883.906 565.777 884.609 544.443C884.609 537.244 874.317 509.998 867.511 500.347Z" fill="#FDC5A6"/>
<path d="M647.932 991.533C651.532 990.633 718.125 967.235 721.622 965.42C724.424 963.965 728.832 960.731 733.423 959.136C735.481 960.535 737.711 962.701 738.82 963.717C737.454 966.881 734.796 968.895 732.526 971.816C723.515 986.043 672.748 995.737 656.931 1000.53C653.65 997.352 650.045 994.397 647.932 991.533Z" fill="#C9787A"/>
<path d="M755.923 136.704C737.837 128.632 729.692 129.023 714.525 140.222C715.12 134.633 715.61 128.323 718.197 123.395C721.605 116.902 728.742 112.375 737.023 114.125C748.673 116.587 753.555 123.395 755.923 136.704Z" fill="#C9787A"/>
<path d="M350.966 136.704C335.822 132.412 325.432 125.657 311.368 138.422C311.085 135.275 311.191 128.82 312.273 125.905C313.712 122.029 322.172 111.507 331.157 113.582C342.659 114.735 348.673 126.518 350.966 136.704Z" fill="#C9787A"/>
<path d="M515.643 988.915C514.61 991.67 512.931 993.948 510.247 996.932C491.942 996.552 474.462 996.946 456.99 996.036C456.957 993.818 457.241 989.081 457.15 986.215C476.496 986.118 495.421 988.063 515.643 988.915Z" fill="#A8A3A7"/>
<path d="M36.8962 1166.11C40.716 1152.66 51.0773 1144.4 62.8388 1136.1C68.0557 1133.38 72.2683 1131.2 77.2779 1128.95C101 1124.6 110.199 1128.88 118.602 1150.35C122.334 1159.88 124.534 1170.35 125.987 1180.51C115.9 1186.22 104.963 1191.92 95.7387 1197.9C84.5621 1205.14 61.536 1202.76 51.3764 1194.19C42.4605 1186.68 39.6973 1176.31 36.8962 1166.11Z" fill="#6A4C50"/>
<path fill-rule="evenodd" clip-rule="evenodd" d="M377.923 337.772C379.892 341.989 383.995 343.682 383.995 343.682C387.063 342.22 392.748 347.547 396.604 350.277C396.873 350.467 396.325 350.08 396.604 350.277C411.826 360.963 427.44 371.824 444.414 379.098C465.4 388.091 487.982 391.336 511.371 391.141C542.866 390.878 573.259 387.224 600.767 371.28C614.791 363.151 627.689 353.184 640.733 343.601L655.766 343.682C657.845 336.644 659.523 328.108 661.431 321.103C663.451 313.688 663.998 311.383 665.93 302.205C658.736 312.186 640.103 323.354 629.939 328.384C629.939 328.384 597.543 359.881 504.173 357.987C465.461 357.202 428.015 345.106 404.872 325.721C390.564 311.286 358.944 255.491 358.944 255.491C356.363 267.998 357.54 286.05 360.617 295.934C365.075 310.257 371.509 324.035 377.923 337.772Z" fill="#EA9F8F"/>
<path fill-rule="evenodd" clip-rule="evenodd" d="M793.445 414.775C796.422 447.171 800.918 465.251 800.918 465.251C807.218 484.953 821.301 482.007 845.014 489.548C836.236 464.023 831.424 453.945 815.568 431.879C812.434 427.517 816.614 407.673 821.619 407.037C834.186 405.439 834.023 404.277 846.73 405.866C856.244 407.057 864.815 404.876 873.338 399.159C881.741 395.794 885.847 388.732 889.946 381.682C894.515 373.823 901.543 369.198 902.854 360.503L902.857 360.484L902.857 360.482C904.058 352.517 905.161 345.161 908.906 340.001C906.077 331.514 892.812 316.587 883.71 313.086C884.32 320.152 884.512 327.223 885.3 334.307C885.984 340.456 886.666 346.688 886.582 352.826C886.358 369.241 867.96 379.413 854.879 386.959C844.242 393.097 829.376 388.564 818.019 389.577C791.022 389.577 793.445 414.775 793.445 414.775Z" fill="#FDC5A6"/>
<path fill-rule="evenodd" clip-rule="evenodd" d="M363.562 244.611C365.995 250.134 367.858 255.843 370.638 261.252C382.925 285.158 405.886 300.182 427.455 314.804C439.265 322.81 450.716 327.515 464.571 331.848C521.306 349.591 576.026 335.152 629.934 316.604C634.524 312.393 676.734 283.389 665.93 302.205C658.81 314.606 642.411 322.212 629.939 328.384C629.939 328.384 611.041 349.082 540.849 357.987C495.913 359.596 440.22 357.246 404.872 325.721C397.764 321.185 359.068 259.091 358.944 255.491C359.068 252.792 362.291 244.853 363.562 244.611Z" fill="#FDC5A6"/>
<path fill-rule="evenodd" clip-rule="evenodd" d="M751.421 936.639C734.419 941.295 717.664 946.885 700.604 951.305C662.484 961.149 616.416 969.194 577.952 957.466C574.33 956.361 570.666 955.37 566.997 954.377C554.577 951.018 541.685 947.64 530.538 939.771C529.16 941.061 527.873 942.497 526.577 943.944C522.024 949.026 516.717 954.271 507.548 953.737C509.897 958.893 513.103 963.971 517.022 967.638C519.657 970.104 523.055 971.772 526.438 973.432C527.668 974.036 528.897 974.639 530.086 975.279C536.517 978.74 542.972 982.157 549.427 985.573C552.085 986.98 554.744 988.387 557.4 989.797C566.444 989.929 577.769 993.062 587.638 993.333C608.91 993.833 627.714 995.751 647.932 991.533C674.085 986.076 698.681 977.458 721.622 965.42C725.541 963.363 729.356 961.012 733.423 959.136C734.81 960.613 737.208 962.916 738.82 963.717C745.268 956.925 750.24 950.795 750.523 946.7C750.807 942.606 751.469 938.197 751.421 936.639Z" fill="#EA9F8F"/>
<path d="M36.8962 1166.11C40.081 1175.76 42.4605 1186.68 51.3764 1194.19C61.536 1202.76 84.5621 1205.14 95.7387 1197.9C104.963 1191.92 122.393 1181.49 125.961 1180.51C126.892 1182.39 124.097 1204.88 123.915 1208.86C123.316 1221.98 115.174 1233.7 102.598 1238.11C74.6675 1234.42 52.429 1222.17 38.997 1196.92C33.9735 1187.48 33.221 1176.82 36.8962 1166.11Z" fill="#542F3F"/>
<path d="M175.55 881.442C176.343 859.872 189.235 851.301 209.028 857.953C211.759 858.871 215.542 858.22 218.349 857.086C231.834 851.64 242.865 854.148 253.074 865.986C242.196 876.924 245.804 887.194 254.17 898.316C259.533 905.446 253.621 912.476 249.613 918.544C244.823 925.798 237.654 928.985 229.429 925.393C223.053 922.608 217.876 922.714 211.649 925.873C204.152 929.677 197.527 925.747 192.325 920.383C182.057 909.794 175.454 897.405 175.55 881.442Z" fill="#A8A3A7"/>
<path d="M228.733 826.901C230.91 837.166 228.504 843.867 220.076 848.727C217.234 850.366 213.561 850.563 210.268 851.419C203.384 838.63 213.671 825.778 228.733 826.901Z" fill="#A8A3A7"/>
<path d="M77.2779 1128.95C79.9202 1124.5 82.5055 1118.74 86.9489 1115.67C105.87 1102.62 127.483 1094.9 151.184 1090.52C155.421 1090.7 158.713 1090.98 161.983 1092.32C166.143 1094.98 170.558 1099.37 174.589 1101.32L198.885 1113.1L228.584 1139.12C228.584 1139.12 244.082 1160.19 242.118 1172.5C239.736 1184.09 196.921 1186.54 189.267 1187.27C172.387 1188.9 155.64 1184.2 138.901 1182.91C135.701 1182.67 127.432 1183.62 125.987 1180.51C123.661 1169.92 122.334 1159.88 118.602 1150.35C110.199 1128.88 101 1124.6 77.2779 1128.95Z" fill="#FFD8AF"/>
<path fill-rule="evenodd" clip-rule="evenodd" d="M125.087 1194.91C123.789 1194.97 125.672 1187 125.745 1186.11C125.844 1184.93 125.961 1180.51 125.961 1180.51C128.692 1181.49 134.642 1182.58 138.899 1182.91C155.638 1184.2 172.387 1188.9 189.267 1187.27C196.486 1186.58 240.173 1181.96 242.118 1172.5C244.082 1160.19 228.584 1139.12 228.584 1139.12C228.584 1139.12 254.679 1163.5 256.481 1175.11C257.875 1178.67 259.178 1182.39 259.335 1185.61C262.525 1194.77 258.273 1201.07 247.89 1201.68C237.227 1202.29 227.283 1205.59 216.706 1206.22C198.717 1207.3 180.626 1207.44 162.596 1207.48C153.458 1207.51 144.457 1206.03 135.322 1206.03C128.544 1206.03 125.993 1200.06 125.087 1194.91Z" fill="#FDC5A6"/>
<path d="M170.974 1091.9C182.258 1097.3 189.912 1104.43 198.885 1113.1C175.487 1107.7 181.891 1104.85 174.589 1101.32C170.558 1099.37 165.389 1095.07 161.983 1092.32C165.095 1091.57 168.449 1091.93 170.974 1091.9Z" fill="#FDC5A6"/>
<path fill-rule="evenodd" clip-rule="evenodd" d="M874.076 824.091L874.077 824.004V824.001C875.608 800.628 874.457 763.923 873.393 738.06V738.056C873.043 729.533 872.692 721.01 872.664 712.486C872.635 704.001 872.84 695.513 873.044 687.025C873.329 675.225 873.614 663.427 873.271 651.645C873.05 644.05 874.134 639.736 881.277 636.069C917.045 617.704 932.033 572.641 915.643 535.998C907.892 518.668 895.392 505.909 880.082 495.568C874.238 491.62 871.722 487.104 872.141 479.918C872.75 469.477 872.77 458.938 872.069 448.506C871.579 441.217 874.038 437.298 880.531 433.935C914.639 416.266 928.357 371.496 908.906 340.001C901.711 344.582 903.781 354.602 902.888 360.523L902.888 360.525L902.888 360.527L902.887 360.529L902.887 360.531L902.857 360.482C899.911 369.779 894.472 373.981 889.978 381.71C885.879 388.76 878.505 396.297 873.371 399.187C863.015 402.176 857.467 407.233 846.763 405.894C825.714 403.261 801.821 403.976 815.568 431.879C831.387 453.893 835.361 464.476 845.014 489.548L867.511 500.347C867.511 500.347 902.605 520.038 902.614 548.779C900.737 569.737 899.011 582.157 893.615 589.275C888.212 594.756 861.215 608.254 852.219 610.723C845.017 611.854 819.638 613.059 806.316 614.472C803.526 631.637 823.953 654 831.518 667.648C831.518 667.648 837.288 678.63 837.821 684.665C838.811 706.403 836.553 729.48 836.32 751.283C836.144 767.744 834.601 784.159 834.832 800.628C834.989 811.773 835.91 822.87 836.273 834.002V834.01C836.76 842.447 837.247 850.887 837.522 859.331C838.041 875.266 836.681 891.081 837.562 907.094C838.042 915.833 838.522 924.571 838.655 933.314C839.35 979.158 848.466 1036.98 836.989 1081.67C834.218 1097.8 838.461 1120.95 836.578 1138.02C833.396 1166.86 817.355 1192.77 794.808 1210.63C779.486 1222.77 763.764 1234.22 743.614 1238.11C737.123 1239.37 730.772 1241.42 724.428 1243.47C717.065 1245.85 709.712 1248.22 702.159 1249.34C691.665 1250.9 680.973 1251.09 670.275 1251.27H670.272C664.783 1251.37 659.292 1251.47 653.825 1251.75C648.576 1252.02 643.327 1252.46 638.079 1252.89C628.803 1253.66 619.531 1254.43 610.27 1254.29C589.236 1253.95 547.256 1250.51 547.256 1250.51C529.388 1248.03 513.434 1242.88 495.853 1238.51C486.157 1236.1 475.382 1231.94 466.151 1228.21C463.309 1227.06 453.82 1223.63 450.853 1222.81C443.003 1220.64 443.398 1217.13 435.691 1214.79C432.607 1213.86 429.423 1212.66 426.555 1211.11C419.421 1222.99 415.177 1239.12 401.297 1244.79C400.071 1245.4 397.798 1246.31 395.999 1247.14C370.435 1237.24 352.51 1215.28 336.565 1193.11C336.565 1193.11 332.535 1173.13 337.905 1160.26C342.06 1153.45 350.063 1139.12 350.063 1139.12C350.063 1139.12 370.051 1130.31 379.763 1124.8C385.671 1116.92 391.598 1109.95 396.859 1103.12C399.438 1092.28 411.184 1085.49 425.115 1081.34C439.727 1076.99 454.549 1076.89 469.324 1076.79C480.322 1076.72 491.447 1076.46 502.288 1074.64C507.196 1073.81 511.655 1071.53 516.287 1069.06C540.898 1055.94 570.853 1044.92 598.98 1047.71C606.16 1048.42 613.261 1049.93 620.617 1051.5L620.621 1051.5C624.048 1052.23 628.163 1052.96 631.734 1053.64C629.644 1053.67 623.742 1061.57 622.732 1063.61C622.693 1064.85 660.454 1078.34 663.377 1079.77C673.438 1084.8 683.582 1089.62 693.796 1094.33C697.323 1095.96 701.796 1094.37 705.526 1094.33C705.526 1082.42 687.164 1075.98 675.826 1069.93C664.964 1064.13 655.508 1059.76 644.329 1054.61C649.082 1050.48 657.538 1042.09 657.538 1042.09C677.1 1025.61 697.242 1008.88 716.747 991.335C722.947 985.757 727.407 978.361 732.526 971.816C707.661 982.444 682.572 991.885 656.931 1000.53C654.767 1011.72 651.609 1022.59 639.475 1026.15C639.475 1026.15 619.266 1030.71 609.06 1032.87C603.521 1034.04 597.988 1035.25 592.454 1036.46C576.444 1039.97 560.429 1043.47 544.262 1045.96C535.297 1047.34 526.428 1049.44 517.534 1051.54L517.526 1051.54C497.924 1056.17 478.16 1061.34 456.99 1058.46C448.432 1058.23 440.277 1059.97 431.817 1060C367.671 1060.21 303.526 1060.07 239.38 1060.13C239.188 1069.79 238.834 1079.26 238.834 1088.92C202.958 1088.92 204.117 1088.93 203.703 1088.91C193.165 1089.09 181.926 1090.58 170.974 1091.9C181.197 1099.09 189.986 1103.7 198.885 1113.1L228.584 1139.12C228.584 1139.12 254.679 1165.3 256.481 1175.11C257.814 1178.51 258.32 1182.11 259.335 1185.61C261.878 1194.99 258.273 1201.07 247.89 1201.68C237.319 1202.29 227.194 1205.59 216.706 1206.22C189.397 1207.86 162.522 1206.03 135.322 1206.03C127.923 1206.03 128.913 1193.9 125.087 1194.91C123.979 1199.66 124.147 1203.78 123.915 1208.86C123.316 1221.98 115.071 1233.08 102.589 1238.11C106.137 1241.51 109.18 1246.8 114.806 1247.14C128.497 1247.95 137.474 1254.58 143.631 1266.15C161.934 1300.53 228.109 1299.22 256.066 1282.98C266.47 1276.93 275.448 1268.92 285.095 1261.8C289.539 1268.01 293.435 1274.62 298.513 1280.36C324.942 1310.23 358.178 1319.89 396.496 1310.93C409.151 1307.97 422.118 1303.85 431.093 1293.03L431.095 1293.03L431.268 1292.91C434.913 1290.38 439.563 1287.16 442.595 1284.23L442.783 1284.34C445.247 1285.24 447.651 1286.18 450.016 1287.11L450.023 1287.12L450.036 1287.12L450.038 1287.12L450.041 1287.12C457.135 1289.92 463.879 1292.57 470.85 1293.48C483.989 1295.21 495.162 1297.92 498.643 1312.81C503.383 1333.09 539.65 1346.27 556.956 1348.79C585.079 1352.89 610.243 1346.77 631.209 1326.91C636.561 1321.84 641.112 1315.92 648.85 1307.22C656.362 1323.06 668.452 1334.65 685.538 1339.92C707.184 1346.6 729.443 1347.33 751.1 1337.37C774.489 1326.61 791.144 1310.84 795.102 1284.14C795.417 1282.02 797.691 1279.28 799.717 1278.46C816.972 1271.42 831.251 1260.32 843.465 1246.57C857.989 1230.21 867.613 1211.19 872.459 1189.81C889.782 1190.4 908.422 1200.61 921.792 1181.84C925.168 1177.1 927.81 1176.2 932.668 1179.11C949.542 1189.22 967.257 1190.29 985.974 1184.55C1005.97 1178.42 1022.96 1157.17 1021.6 1136.34C1021 1127 1016.5 1118.45 1013.81 1109.62C1013.85 1109.58 1013.89 1109.54 1013.95 1109.5C1028.58 1096.87 1041.71 1081.21 1047.21 1062.35C1055.12 1040.51 1060.83 1019.55 1055.63 996.06L1039.47 1044.71L1020 1075.64L973.593 1106.99L932.176 1105.16L910.711 1095.02L901.712 1086.02L893.613 1025.73L891.847 969.963C886.964 973.506 882.465 977.142 878.198 980.613C878.164 980.523 878.124 980.452 878.076 980.404C877.408 928.539 874.076 876.63 874.076 824.091Z" fill="#EA9F8F"/>
<path d="M239.38 1060.13C239.38 1069.24 238.834 1080.23 238.834 1088.92C228.037 1088.92 216.274 1088.89 203.703 1088.91C192.394 1089.76 181.926 1090.58 170.974 1091.9C167.965 1092.43 165.439 1092.46 162.159 1092.58C158.304 1091.95 154.99 1091.25 151.184 1090.52C153.131 1083.16 157.205 1078.35 163.935 1075.56C182.408 1067.9 210.578 1070.72 219.577 1068.92C222.41 1068.3 225.883 1066.59 228.576 1065.32C227.682 1062.71 222.17 1062.03 220.155 1060.01C223.755 1060.01 237.58 1060.13 239.38 1060.13Z" fill="#C9787A"/>
<path fill-rule="evenodd" clip-rule="evenodd" d="M282.573 610.054C289.454 605.866 284.914 602.143 280.771 600.074C258.014 588.708 224.885 578.622 223.177 548.779C222.693 540.326 222.535 531.688 221.377 523.582C217.157 532.218 212.473 541.382 208.778 549.679C210.196 551.136 212.118 551.789 213.114 553.837C217.616 563.1 226.2 582.508 226.2 582.508C226.188 582.514 229.876 586.781 229.87 587.5C233.049 593.82 235.356 594.47 240.413 598.158C245.671 601.992 258.338 606.589 269.974 609.154C273.274 605.092 278.587 607.901 282.573 610.054Z" fill="#FDC5A6"/>
<path fill-rule="evenodd" clip-rule="evenodd" d="M893.613 1025.73C897.127 1030.34 901.866 1034.14 904.052 1039.65C909.669 1053.83 917.165 1067.73 929.182 1075.84C938.494 1082.12 950.652 1082.75 961.646 1081.87C971.785 1080.61 983.946 1077.67 994.45 1071.43L995.093 1071.05C1006.59 1064.23 1015.52 1053.82 1020.3 1040.56C1021.53 1037.13 1023.97 1033.96 1026.45 1031.2C1035.26 1021.44 1036.72 1009.09 1037.69 997.064C1038.12 991.643 1037.5 986.147 1036.88 980.638C1036.45 976.927 1036.03 973.21 1035.93 969.505C1035.88 967.367 1038.55 965.156 1040.61 962.98C1044.3 967.966 1047.6 973.847 1050.2 979.834C1050.17 979.884 1050.14 979.934 1050.12 979.983C1052.28 985.067 1053.92 989.917 1055.6 996.032C1053.79 1014.11 1046.6 1030.31 1039.47 1044.71C1035.8 1054.61 1025.06 1066.05 1020 1075.64C1017.8 1080.62 985.369 1104.92 973.593 1106.99C959.763 1109.42 946.585 1108.45 932.176 1105.16C922.274 1102.91 916.363 1100.67 910.711 1095.02C907.95 1092.26 904.934 1088.35 901.712 1086.02C887.622 1075.84 882.854 1038.07 893.613 1025.73Z" fill="#FDC5A6"/>
<path d="M689.003 444.885C693.831 451.187 699.37 456.755 702.057 463.465C704.549 469.69 705.443 477.368 704.376 483.976C703.303 490.622 697.792 495.699 690.044 494.946C682.682 494.231 678.53 489.424 677.122 482.15C674.758 469.932 665.827 464.022 654.971 461.338C644.587 458.77 634.769 462.186 628.781 470.966C624.942 476.595 623.941 484.159 621.693 491.528C617.283 497.731 612.512 503.221 604.501 499.653C596.658 496.16 594.622 489.202 594.952 481.065C595.874 458.331 616.296 436.374 640.199 431.829C658.524 428.344 674.366 432.898 689.003 444.885Z" fill="#542F3F"/>
<path d="M459.838 514.583C447.163 509.576 440.881 500.514 442.423 490.469C443.057 486.332 446.989 481.802 450.674 479.286C454.32 476.796 457.914 478.333 460.123 483.645C465.284 496.048 475.2 498.017 482.677 488.662C485.778 484.781 485.954 480.992 485.954 480.992C478.154 477.76 469.8 468.087 471.863 460.675C473.96 453.138 481.164 452.659 488.254 453.191C493.808 453.607 499.439 453.101 505.03 452.877C512.049 452.597 519.276 451.953 521.782 460.848C523.797 468.002 519.851 475.193 512.091 478.975C510.522 479.739 508.82 480.227 506.782 480.992C509.4 488.566 513.8 493.761 521.711 492.849C525.288 492.437 530.122 489.55 531.536 486.476C534.687 479.62 538.169 474.818 546.314 477.318C553.449 479.509 557.13 488.467 553.447 496.006C550.748 502.066 545.348 505.665 542.648 507.465L531.536 510.665C529.965 510.665 505.54 514.683 496.614 500.702C486.599 512.562 473.094 514.545 459.838 514.583Z" fill="#542F3F"/>
<path d="M543.543 530.781C548.038 553.668 540.886 579.086 522.917 591.069C506.685 601.893 479.561 600.235 468.851 573.977C469.756 564.159 481.181 539.651 494.948 534.381C505.569 533.752 515.831 533.46 525.705 532.726C531.528 532.294 537.734 531.393 543.543 530.781Z" fill="#FCA199"/>
<path d="M345.771 470.921C337.941 471.333 332.316 467.829 333.485 457.809C336.815 435.234 362.958 427.433 380.785 430.776C403.93 435.115 420.327 449.085 426.751 472.638C427.968 477.1 428.36 478.085 428.36 486.476C428.36 494.866 422.961 502.066 413.062 502.066C403.163 502.066 398.576 487.427 397.187 480.654C395.948 477.4 394.88 475.379 393.813 473.357C387.183 462.497 375.064 457.725 362.885 462.063C357.83 465.031 351.663 470.611 345.771 470.921Z" fill="#542F3F"/>
<path d="M656.036 516.383C672.677 516.383 683.934 531.531 683.934 543.94C683.934 562.764 669.265 573.977 656.036 573.977C642.651 573.977 625.44 561.535 625.44 543.94C625.44 523.141 641.143 516.383 656.036 516.383Z" fill="#FCA199"/>
<path d="M370.766 575.858C350.969 575.858 340.17 560.905 340.17 547.061C340.17 528.981 356.368 518.264 370.766 518.264C385.165 518.264 398.664 530.927 398.664 547.061C398.664 560.905 390.564 575.858 370.766 575.858Z" fill="#FCA199"/>
<path d="M494.948 534.381C507.243 521.942 525.221 520.32 542.648 518.264C542.648 518.264 543.374 526.321 543.543 530.781C537.671 532.184 531.528 532.294 525.705 532.726C515.831 533.46 505.569 533.752 494.948 534.381Z" fill="#F68A8A"/>
<path fill-rule="evenodd" clip-rule="evenodd" d="M494.948 534.381C510.252 520.964 526.417 520.752 542.648 518.264C542.651 516.93 542.654 510.671 542.648 507.465L531.536 510.665C529.965 510.665 505.54 514.683 496.614 500.702C487.082 511.99 473.66 513.684 459.838 514.583C460.427 528.485 460.912 541.101 461.652 554.179C461.652 555.978 467.73 571.629 468.851 573.977C471.78 559.216 483.513 538.758 494.948 534.381Z" fill="#C9787A"/>
<path fill-rule="evenodd" clip-rule="evenodd" d="M403.16 734.241C396.274 739.785 389.284 744.36 383.361 750.358C398.497 833.652 408.498 919.71 431.055 1001.43C430.328 1024.55 422.851 1033.05 400.404 1033.14C399.178 1033.15 397.953 1033.14 396.727 1033.14C395.853 1033.14 394.979 1033.13 394.106 1033.13L317.32 1033.15C270.225 1033.16 223.129 1033.17 176.034 1033.17C167.032 1033.17 158.03 1033.17 149.028 1033.16C126.75 1033.15 104.471 1033.13 82.1929 1033.23C74.8373 1033.26 67.9472 1033.02 62.2485 1027.21C60.4821 1025.41 57.1336 1025.72 54.9682 1026C62.5194 1047.89 77.264 1059.21 99.6009 1059.41C119.178 1059.58 138.756 1059.69 158.334 1059.79C166.775 1059.84 175.216 1059.88 183.656 1059.93C183.656 1059.93 200.867 1060.06 220.155 1060.01C290.659 1061.18 361.308 1060.23 431.817 1060C435.635 1059.98 457.138 1058.09 456.99 1058.46C478.16 1061.34 497.889 1056.68 517.492 1052.05C526.389 1049.95 535.26 1047.85 544.228 1046.47C560.396 1043.98 576.444 1039.97 592.454 1036.46C597.988 1035.25 603.521 1034.04 609.06 1032.87C609.06 1032.87 631.838 1028.38 639.475 1026.15C651.609 1022.59 655.936 1012.03 656.931 1000.53C654.334 997.336 650.876 994.362 647.932 991.533C617.641 991.068 587.108 990.114 556.745 989.841C542.812 989.643 528.923 989.156 515.643 988.915C513.793 991.369 512.088 993.799 510.247 996.932C514.473 998.784 518.891 1000.11 523.143 1001.89C537.545 1003.11 554.695 1004.26 569.951 1004.93C569.957 1004.96 569.963 1004.98 569.969 1005.01L583.139 1007.73C580.083 1008.47 577.692 1009.54 575.051 1010.2C569.697 1011.55 565.019 1012.73 560.297 1013.7C556.188 1014.54 552.075 1015.36 547.955 1016.19C536.789 1018.43 525.193 1020.39 513.846 1023.03C513.846 1023.03 518.782 1030.16 521.945 1034.73C521.945 1034.73 517.188 1043.71 512.052 1044.71C500.353 1041.11 500.348 1041.03 501.248 1026.63C490.218 1026.16 476.948 1026.44 464.351 1026.63C461.652 1023.93 459.852 1019.43 458.952 1016.73C457.938 1009.39 457.612 1003.69 456.99 996.036C456.965 993.009 457.65 989.679 457.15 986.215C453.632 970.695 449.325 957.193 446.462 942.882C441.687 919.016 436.938 895.144 432.19 871.273C424.666 833.449 417.142 795.625 409.512 757.822C407.88 749.738 406.084 742.002 403.16 734.241Z" fill="#8B7887"/>
<path d="M583.139 1007.73C576.84 1011.33 567.691 1012.59 560.641 1014.03C545.395 1017.15 530.086 1019.31 513.846 1023.03C509.194 1024.49 504.936 1025.91 501.248 1026.63C489.179 1026.87 477.095 1026.7 464.351 1026.63C461.652 1023.93 459.852 1020.33 458.952 1016.73C480.398 1011.36 502.001 1006.61 523.143 1001.89C541.141 1002.64 566.403 999.363 583.139 1007.73Z" fill="#BEB2BD"/>
<path d="M523.143 1001.89C502.156 1007.27 480.783 1011.87 458.952 1016.73C457.634 1010.03 457.612 1003.69 456.99 996.036C474.47 996.137 491.932 995.874 510.247 996.932C515.178 998.198 518.899 1000.12 523.143 1001.89Z" fill="#542F3F"/>
<path fill-rule="evenodd" clip-rule="evenodd" d="M751.421 936.639C751.01 938.683 750.523 946.7 750.523 946.7C755.923 945.8 757.596 939.784 757.723 938.601C757.816 937.726 757.595 939.568 757.723 938.601C759.523 935.902 759.443 925.688 757.263 923.476C753.556 919.716 746.273 917.382 740.857 917.908C733.183 918.654 725.469 925.412 718.392 924.543C706.81 923.123 696.45 926.438 686.217 929.793C682.296 931.079 678.391 932.439 674.446 933.439C647.165 940.352 620.134 936.611 593.277 934.699C580.51 933.79 567.948 929.974 555.383 926.239C549.767 924.57 544.183 921.939 538.548 920.522C536.125 927.038 532.797 933.194 530.538 939.771C541.685 947.64 554.577 951.018 566.997 954.377C570.666 955.37 574.33 956.361 577.952 957.466C616.416 969.194 662.484 961.149 700.604 951.305C717.281 947 742.427 939.42 751.421 936.639Z" fill="#FDC5A6"/>
<path d="M501.248 1026.63C501.248 1026.63 509.452 1023.86 513.846 1023.03C521.945 1023.03 521.944 1031.68 521.945 1034.73C521.951 1043.81 514.857 1044.16 512.052 1044.71C500.353 1045.61 496.555 1033.92 501.248 1026.63Z" fill="#542F3F"/>
<path d="M891.814 969.935C903.774 960.33 927.288 967.244 936.027 975.426C939.835 978.991 942.768 982.843 947.608 987.933C955.851 961.142 972.33 945.293 999.715 943.138C1016.92 941.784 1030.65 948.916 1040.61 962.98C1038.73 965.715 1035.88 967.367 1035.93 969.505C1036.18 978.711 1038.42 987.992 1037.69 997.064C1036.72 1009.09 1035.26 1021.44 1026.45 1031.2C1023.97 1033.96 1021.53 1037.13 1020.3 1040.56C1015.52 1053.82 1006.59 1064.23 995.093 1071.05C976.959 1081.82 948.422 1088.82 929.182 1075.84C917.165 1067.73 909.669 1053.83 904.052 1039.65C902.014 1034.51 897.087 1031.1 893.613 1025.73C893.084 1006.85 892.353 988.009 891.814 969.935Z" fill="#FFD8AF"/>
<path d="M350.063 1139.12C356.368 1134.7 370.283 1129.71 379.763 1124.8C388.215 1124.39 395.819 1123.87 403.3 1125.92C415.772 1129.35 423.036 1139.6 425.724 1151.71C428.215 1162.94 428.853 1175.45 430.157 1187.79C430.157 1187.79 429.468 1191.52 428.355 1193.11C422.994 1194.21 418.012 1194.32 413.934 1196.31C408.819 1198.81 404.66 1204.36 399.465 1205.36C391.281 1206.94 382.477 1206.68 374.112 1205.7C356.157 1203.59 340.21 1185.33 339.565 1167.51C339.485 1165.29 338.506 1163.13 337.905 1160.26C342.358 1152.96 344.669 1143.7 350.063 1139.12Z" fill="#6A4C50"/>
<path d="M426.555 1211.11C422.956 1228.87 409.297 1245 395.999 1247.14C392.145 1246.04 389.111 1245.1 384.951 1243.28C362.394 1231.66 346.292 1216.42 336.565 1193.11C333.767 1181.85 333.409 1170.33 337.905 1160.26C337.905 1160.26 349.473 1202.8 374.112 1205.7C382.477 1206.68 391.281 1206.94 399.465 1205.36C404.66 1204.36 408.819 1198.81 413.934 1196.31C418.012 1194.32 423.389 1193.73 428.355 1193.11C429.914 1198.26 427.575 1206.08 426.555 1211.11Z" fill="#542F3F"/>
<path d="M265.138 877.272C264.852 876.507 264.339 875.849 263.669 875.383C262.999 874.918 262.202 874.668 261.386 874.668H213.091L240.948 820.506C241.264 819.896 241.417 819.215 241.392 818.529C241.368 817.842 241.168 817.174 240.81 816.588C240.452 816.002 239.949 815.518 239.35 815.183C238.751 814.848 238.075 814.672 237.389 814.674C236.43 814.675 235.503 815.02 234.777 815.646L146.786 891.638C146.169 892.171 145.729 892.881 145.526 893.671C145.323 894.461 145.366 895.294 145.651 896.059C145.935 896.824 146.446 897.484 147.116 897.949C147.786 898.415 148.582 898.665 149.398 898.665H197.693L169.836 952.828C169.52 953.438 169.367 954.118 169.391 954.805C169.416 955.491 169.616 956.159 169.974 956.745C170.332 957.331 170.835 957.815 171.434 958.151C172.033 958.486 172.709 958.661 173.395 958.659C174.354 958.659 175.281 958.314 176.007 957.687L263.998 881.695C264.617 881.162 265.058 880.453 265.261 879.662C265.465 878.871 265.422 878.037 265.138 877.272Z" fill="#FFBD5D"/>
</svg>
