<svg width="1058" height="1350" viewBox="0 0 1058 1350" fill="none" xmlns="http://www.w3.org/2000/svg">
<path d="M279.873 412.075C278.03 421.114 275.404 430.117 273.577 439.891C257.752 435.088 241.383 429.534 230.054 416.287C219.612 404.078 213.282 390.367 213.283 374.198C213.283 373.503 213.805 369.627 214.181 367.866C214.624 364.763 215.624 364.174 218.681 363.48C222.115 363.48 222.959 365.534 223.177 368.961C228.724 384.247 233.979 390.477 250.177 403.076C250.177 403.076 271.81 401.945 280.766 403.976L279.873 412.075Z" fill="#EA9F8F"/>
<path d="M813.515 289.688C834.336 289.563 854.625 293.75 873.03 303.675C876.853 305.737 880.044 308.898 883.708 313.086C885.354 325.949 886.756 339.911 886.58 352.826C886.35 369.672 868.183 379.283 854.878 386.959C823.429 405.103 799.12 444.967 800.916 465.251C807.216 484.953 821.299 482.007 845.012 489.548L867.509 500.347C874.741 510.603 884.607 533.644 884.607 544.443C885.704 565.777 875.089 574.417 855.488 583.875C838.978 591.841 821.922 594.187 804.345 596.052C798.226 596.701 793.338 599.201 793.44 607.088C797.372 616.274 807.206 629.706 807.734 639.839C808.78 659.889 809.465 679.976 809.546 700.053C809.615 717.238 808.657 734.426 808.221 751.614C807.586 776.723 806.826 801.832 806.518 826.945C806.416 835.255 808.046 843.583 808.008 851.899C807.819 894.243 809.948 936.503 809.88 978.805C809.849 998.063 808.616 1017.32 808.286 1036.58C807.992 1053.81 808.265 1071.96 807.352 1089.15C806.467 1105.81 806.265 1121.6 804.197 1138.3C801.696 1158.48 791.917 1172.58 779.532 1185.52C764.945 1204.53 742.024 1210.32 720.861 1217.26C712.829 1219.89 705.707 1224.62 697.536 1225.5C680.78 1227.31 663.15 1226.47 646.341 1227.94C626.55 1229.67 600.463 1228.76 580.73 1225.89C561.379 1223.08 541.487 1219.71 522.127 1216.97C509.939 1215.24 498.476 1213.9 487.232 1208.06C469.271 1198.74 450.382 1192 430.155 1187.79C428.851 1175.45 428.147 1163.03 425.656 1151.8C422.968 1139.68 415.77 1129.35 403.299 1125.92C395.817 1123.87 387.565 1125.43 379.761 1124.8C385.253 1117.38 390.071 1110.2 395.959 1103.2C404.1 1099.42 412.348 1093.69 420.256 1091.5C448.442 1083.72 476.187 1085.65 503.942 1096.9C510.091 1099.4 516.551 1098.37 520.141 1090.6C522.132 1086.3 526.961 1083.75 530.939 1080.7C559.3 1058.97 589.028 1056.29 622.73 1063.61C635.92 1069.87 649.656 1074.11 663.375 1079.77C673.799 1084.08 684.213 1089.78 694.37 1094.47C697.293 1095.82 701.963 1094.37 705.524 1094.33C700.1 1081.97 687.508 1076.16 675.824 1069.93C665.124 1064.22 655.115 1060.05 644.328 1054.61C649.073 1050.41 653.06 1046.57 657.536 1042.09C658 1041.63 697.823 1008.36 716.745 991.335C721.978 986.626 726.51 974.582 732.524 971.816L738.818 963.717C744.791 957.426 750.522 946.7 750.522 946.7C750.522 946.7 757.594 939.784 757.721 938.601C758.621 934.102 759.893 926.147 757.261 923.476C753.554 919.716 746.271 917.382 740.855 917.908C733.182 918.654 725.467 925.412 718.39 924.543C702.369 922.578 688.682 929.831 674.444 933.439C647.163 940.352 620.132 936.611 593.275 934.699C574.802 933.384 551.145 925.921 538.546 920.522C538.874 916.685 538.221 913.507 539.039 909.782C538.186 893.935 539.537 878.795 536.285 863.946C533.193 849.829 525.371 837.875 509.347 833.231C510.989 830.364 513.429 827.069 515.641 826.032C525.885 821.226 534.99 814.964 545.854 812.419C591.434 801.742 637.356 795.376 684.105 805.82C687.623 806.606 692.142 802.911 696.195 801.298C693.555 798.62 691.255 794.143 688.216 793.568C673.338 790.75 658.242 787.087 643.262 787.254C619.17 787.523 594.938 789.368 571.084 792.779C548.356 796.03 525.921 802.095 506.557 815.4C498.596 820.87 490.165 826.639 487.655 837.836C484.27 839.719 481.266 841.053 478.349 842.557C466.701 848.562 456.933 856.1 451.458 869.309C444.435 883.086 444.661 896.332 451.12 909.619C461.086 930.12 477.919 941.915 499.014 948.709C502.252 949.753 505.208 951.676 508.139 953.866C511.14 959.022 513.707 964.135 517.626 967.802C521.22 971.164 526.232 973.042 530.69 975.442C539.769 980.329 548.897 985.126 557.352 990.005C543.419 989.807 529.738 989.456 515.641 988.915C495.419 988.063 476.961 987.365 457.148 986.215C453.199 971.562 449.217 957.33 446.354 943.019C431.24 881.8 420.256 820.632 409.457 758.539C407.826 750.455 405.473 742.822 403.158 734.241C395.349 718.473 382.639 709.806 366.045 709.47C335.271 708.846 304.365 709.908 273.572 709.044C272.38 700.415 271.156 691.658 269.972 683.847C270.517 670.484 269.848 656.36 272.217 643.15C276.073 631.453 278.627 620.74 282.571 610.054C282.571 610.054 284.912 602.143 280.769 600.074C257.259 588.332 224.963 580.01 223.175 548.779C222.691 540.326 222.009 532.141 221.377 523.696C228.909 508.819 241.645 499.699 256.418 493.481C272.956 486.519 273.056 486.941 273.09 469.975C273.108 460.821 273.447 451.668 273.638 441.001C275.479 430.448 277.3 421.131 279.873 412.075L280.766 403.976C277.096 403.351 263.676 408.476 250.177 403.076C227.68 387.778 224.08 373.379 223.177 368.961C222.277 365.362 222.249 363.934 218.681 363.48C215.624 364.174 214.624 364.763 214.181 367.866C213.22 364.38 220.245 345.383 223.177 338.283C228.755 324.772 239.575 315.994 250.881 307.757C269.593 294.124 291.296 289.096 315.783 287.781C313.39 282.594 311.271 278.596 309.654 274.404C294.683 235.603 282.627 196.14 276.78 154.675C272.032 120.993 271.922 87.9161 281.163 55.2223C287.449 32.983 298.96 14.9798 321.493 4.41807C341.816 -5.10762 367.878 3.71903 379.542 24.0231C385.783 34.889 387.994 48.1543 391.459 61.1121C390.13 62.6608 388.717 62.8683 388.721 63.4941C388.836 81.9916 388.322 100.536 389.496 118.971C390.516 134.973 393.281 150.88 395.693 166.765C396.307 170.806 401.358 179.9 401.358 179.9C401.358 179.9 411.229 172.334 415.757 169.101C425.989 166.636 436.651 163.841 446.979 161.881C453.285 160.684 460.048 161.217 467.951 161.002C473.822 162.277 478.035 162.923 482.572 164.601C492.478 170.768 500.351 175.4 504.85 162.801C506.65 146.603 487.345 136.142 476.948 124.024C464.959 110.05 468.614 92.9636 466.131 77.1451C474.365 62.0353 488.449 56.5037 504.296 54.1647C536.311 49.4392 563.085 62.8548 588.984 79.0519C615.633 95.7186 638.403 116.325 654.954 143.417C660.116 151.867 666.164 159.777 672.603 169.084C672.603 150.2 673.189 133.145 672.468 116.145C671.33 89.2929 668.385 62.2562 676.957 36.1778C688.694 0.470413 732.45 -11.7506 760.738 12.9456C784.227 33.4526 795.268 65.671 801.816 95.3085C800.51 97.063 798.898 97.6495 798.889 98.575C798.714 116.915 798.836 135.258 798.552 153.596C798.363 165.822 797.628 178.039 797.149 190.261C796.581 204.757 796.507 219.292 795.342 233.74C793.955 250.951 791.507 268.074 789.902 285.271C789.721 287.212 792.567 291.408 793.715 291.406C800.428 291.394 806.803 290.296 813.515 289.688ZM350.964 136.704C347.794 127.649 341.961 114.666 331.155 113.582C316.112 112.074 311.366 138.422 311.366 138.422C313.001 151.957 313.366 168.111 317.074 181.292C322.947 202.17 328.83 223.047 334.861 243.88C336.849 250.746 340.925 251.242 346.162 246.93C349.6 244.099 352.883 240.992 356.636 238.652C362.287 235.128 370.519 220.448 368.96 214.014C364.554 195.839 359.253 179.716 354.563 160.102C353.33 152.793 352.223 145.366 350.964 136.704ZM755.921 136.704C753.573 124.129 748.671 116.587 737.021 114.125C728.74 112.375 721.603 116.902 718.195 123.395C715.608 128.323 715.9 132.932 714.523 140.222C715.076 149.321 715.846 158.232 716.323 169.019C716.346 186.034 715.913 204.897 715.803 221.911C715.767 227.51 717.305 231.381 722.957 233.878C731.838 237.803 740.907 242.829 749.607 247.171C751.863 248.297 754.348 248.963 756.728 249.84C764.322 228.273 758.624 200.597 759.521 176.3C758.426 163.771 757.056 150.701 755.921 136.704Z" fill="#FFD8AF"/>
<path d="M54.9662 1026C51.5919 1011.88 47.8346 997.833 44.9189 983.617C37.733 948.582 30.8968 913.475 23.9887 878.383C15.9166 837.378 7.44916 796.441 0.294301 755.276C-1.08544 747.338 2.68524 738.584 5.39756 729.66C14.9793 728.536 23.42 727.265 31.7471 727.255C134.629 727.131 237.512 727.259 340.394 727.043C350.296 727.022 358.54 729.851 365.886 736.112C371.473 740.875 377.427 744.952 383.359 750.358C398.583 834.135 409.884 919.004 431.304 1001.51C431.236 1024.68 422.851 1033.05 400.404 1033.14C398.305 1033.15 396.206 1033.13 394.106 1033.13C321.415 1033.15 248.725 1033.16 176.034 1033.17C144.754 1033.18 113.473 1033.1 82.1932 1033.23C74.8376 1033.26 67.9474 1033.02 62.2487 1027.21C60.8558 1025.79 57.4476 1026.35 54.9662 1026Z" fill="#A8A3A7"/>
<path d="M99.8876 696.364C99.9797 695.913 100.416 695.505 101.314 694.466C107.927 686.49 113.31 679.568 119.686 672.066C134.804 659.21 151.243 648.615 170.073 643.335C187.474 638.455 205.666 639.119 223.175 642.369L224.075 643.269C225.859 647.542 226.422 651.607 228.475 654.529C241.32 672.817 254.146 690.792 266.37 708.962C211.531 708.969 157.498 709.757 103.487 709.044C102.275 704.616 101.093 700.106 99.8876 696.364Z" fill="#FFD8AF"/>
<path d="M103.487 709.044C157.491 709.07 210.837 708.931 266.37 708.962C269.283 708.937 272.188 709.074 273.572 709.044C304.358 709.09 334.664 708.683 365.438 709.307C382.032 709.644 395.967 718.287 403.158 734.241C396.28 740.419 389.628 745.001 383.359 750.358C377.773 745.593 371.473 740.875 365.886 736.112C358.54 729.851 350.296 727.022 340.394 727.043C237.512 727.259 134.629 727.131 31.7471 727.255C23.42 727.265 14.5 728.978 5.39756 729.66C11.0716 714.604 25.216 710.256 39.4015 709.399C56.604 708.36 74.7082 709.058 93.5937 709.044C98.3637 709.045 100.34 709.073 103.487 709.044Z" fill="#BEB2BD"/>
<path d="M223.175 642.369C205.921 639.673 187.474 638.455 170.073 643.335C151.243 648.615 135.487 659.448 119.686 672.066C107.164 661.742 106.716 646.68 103.794 633.306C103.262 630.869 101.948 628.471 100.788 626.171C110.379 598.494 135.868 585.043 165.234 594.499C189.833 602.42 210.287 618.622 223.175 642.369Z" fill="#6A4C50"/>
<path d="M813.515 289.688C813.515 289.688 800.428 291.394 793.715 291.406C792.567 291.408 789.721 287.212 789.902 285.271C791.507 268.074 793.955 250.951 795.342 233.74C796.507 219.292 796.581 204.757 797.149 190.261C797.628 178.039 798.363 165.822 798.552 153.596C798.836 135.258 798.714 116.915 798.889 98.575C798.898 97.6495 800.572 96.3493 801.816 95.3085C814.985 138.304 817.888 182.842 816.407 227.474C815.736 247.689 814.544 268.712 813.515 289.688Z" fill="#EA9F8F"/>
<path d="M415.757 169.101C411.343 173.084 401.358 179.9 401.358 179.9C401.358 179.9 396.307 170.806 395.693 166.765C393.281 150.88 390.516 134.973 389.496 118.971C388.322 100.536 388.836 81.9916 388.721 63.4941C388.717 62.8683 390.168 61.9268 391.459 61.1121C397.524 85.0189 402.565 109.418 407.923 133.512C410.44 144.829 413.145 157.029 415.757 169.101Z" fill="#EA9F8F"/>
<path d="M482.347 164.52C477.933 163.486 473.002 162.303 467.951 161.002C455.978 143.095 447.664 122.995 453.551 100.626C457.176 104.064 461.79 108.888 462.765 113.372C466.179 129.067 474.605 140.88 487.047 150.579C491.517 154.064 499.21 154.83 499.21 163.794C499.21 170.603 488.083 164.52 482.347 164.52Z" fill="#EA9F8F"/>
<path d="M273.572 709.044L266.37 708.962C252.617 690.787 241.32 672.817 228.475 654.529C226.422 651.607 225.323 647.422 224.075 643.269C234.541 639.51 239.474 648.387 244.77 654.005C253.36 663.117 261.673 673.648 269.972 683.847C271.473 692.171 272.38 700.415 273.572 709.044Z" fill="#EA9F8F"/>
<path d="M100.788 626.171C102.345 627.973 103.263 630.87 103.796 633.307C106.718 646.681 107.732 661.628 119.686 672.066C114.561 679.691 107.676 687.132 101.314 694.466C92.3203 672.452 92.411 648.976 100.788 626.171Z" fill="#542F3F"/>
<path d="M482.349 164.52C487.962 163.875 499.21 170.783 499.21 163.794C499.21 154.83 491.517 154.064 487.047 150.579C474.605 140.88 466.179 129.067 462.765 113.372C461.79 108.888 456.991 104.785 453.551 100.626C451.076 94.3294 463.153 81.9091 466.149 77.2288C469.171 92.7198 472.448 116.825 476.948 124.024C487.345 136.142 506.672 146.408 504.85 162.801C500.351 175.4 492.256 170.686 482.349 164.52Z" fill="#FDC5A6"/>
<path fill-rule="evenodd" clip-rule="evenodd" d="M163.933 1075.56C174.704 1071.09 185.57 1070.95 196.409 1070.81C204.159 1070.71 211.896 1070.61 219.575 1068.92C222.748 1068.23 225.654 1066.69 228.574 1065.32C228.579 1062.71 221.944 1060.91 220.153 1060.01C214.623 1059.92 183.654 1059.93 183.654 1059.93C177.944 1062.52 172.351 1065.01 166.293 1066.64C156.752 1069.2 147.614 1071.66 142.183 1081.52C122.734 1083.61 104.029 1089.05 88.4081 1099.66C75.4397 1108.47 62.7929 1118.64 62.9922 1136.42C67.8124 1134.15 73.1773 1131.39 77.39 1129.22C80.8292 1124.7 82.5015 1118.74 86.9449 1115.67C105.866 1102.62 128.186 1094.92 151.182 1090.52C152.987 1086.1 154.642 1079.41 163.933 1075.56Z" fill="#EA9F8F"/>
<path fill-rule="evenodd" clip-rule="evenodd" d="M213.112 553.837C212.206 551.974 210.482 550.555 208.776 549.679C208.084 558.419 207.893 567.415 207.024 576.118C206.078 581.645 208.141 588.478 209.676 593.774C220.894 622.411 243.534 637.729 272.217 643.15C274.554 636.386 276.953 628.926 278.874 622.336C280.085 618.179 281.289 614.139 282.571 610.054C278.585 607.901 273.272 605.092 269.972 609.154C258.336 606.589 245.669 601.992 240.411 598.158C235.354 594.47 233.047 593.82 229.868 587.5C229.868 587.5 216.792 561.408 213.112 553.837Z" fill="#EA9F8F"/>
<path d="M103.487 709.044C103.487 709.044 97.5361 709.061 93.5937 709.044C94.897 704.994 97.2362 700.658 99.8876 696.364C101.646 699.815 102.275 704.616 103.487 709.044Z" fill="#EA9F8F"/>
<path fill-rule="evenodd" clip-rule="evenodd" d="M510.25 405.776C476.588 400.457 411.522 381.149 383.993 343.682C383.993 343.682 371.12 353.581 365.117 356.344C353.122 364.38 349.219 368.712 343.544 376.172C335.4 383.867 331.006 390.941 327.024 401.276C324.192 408.629 322.098 418.746 322.35 426.646C322.35 426.646 322.179 447.93 322.18 453.634V453.636C322.18 453.636 321.974 493.599 321.974 503.338C321.974 508.799 321.937 514.261 321.9 519.724C321.802 534.059 321.705 548.395 322.273 562.704C324.257 612.697 367.246 655.522 417.757 655.255C472.514 654.966 527.273 655.062 582.031 655.158C594.693 655.18 607.356 655.202 620.018 655.22C639.433 655.247 658.224 652.29 675.013 642.18C705.53 623.803 723.315 596.473 724.749 560.937C725.728 536.689 725.528 512.396 725.327 488.101C725.209 473.729 725.09 459.355 725.216 444.989C725.437 419.675 719.76 396.32 703.551 376.504C690.872 361.002 676.493 346.958 655.765 343.682C619.604 386.238 510.25 405.776 510.25 405.776Z" fill="#FEFBF2"/>
<path d="M383.993 343.682C387.598 341.964 394.157 347.2 396.602 350.277C411.825 360.963 427.438 371.824 444.412 379.098C465.398 388.091 487.98 391.336 511.37 391.141C542.864 390.878 573.257 387.224 600.765 371.28C614.261 363.457 640.731 343.601 640.731 343.601L655.765 343.682C620.826 386.935 545.611 405.776 510.25 405.776C480.818 405.776 407.754 396.326 383.993 343.682Z" fill="#EFCBCF"/>
<path d="M450.851 869.145C455.847 856.411 466.093 848.399 477.741 842.394C480.658 840.891 483.663 839.556 487.734 837.571C495.547 835.724 502.641 834.505 509.347 833.231C525.349 837.216 532.585 849.667 535.677 863.783C538.93 878.632 538.837 893.984 539.039 909.782C535.051 909.987 532.008 909.42 529.185 909.701C521.269 910.487 513.354 911.478 505.517 912.839C483.43 916.675 468.076 905.846 456.446 889.108C452.69 883.703 452.535 875.99 450.851 869.145Z" fill="#6A4C50"/>
<path d="M538.546 920.522C536.837 927.011 533.546 933.793 530.536 939.771C524.625 946.174 519.169 955.097 507.546 953.737C503.807 952.22 501.645 949.591 498.406 948.547C477.312 941.753 460.479 929.958 450.512 909.457C444.053 896.17 443.829 882.923 450.851 869.145C453.013 875.516 452.69 883.703 456.446 889.108C468.076 905.846 483.43 916.675 505.517 912.839C513.354 911.478 521.269 910.487 529.185 909.701C532.008 909.42 535.506 909.415 539.039 909.782C539.327 912.984 538.874 916.685 538.546 920.522Z" fill="#542F3F"/>
<path d="M759.521 176.3C759.557 199.004 763.118 245.511 756.819 250.011C754.439 249.133 751.863 248.297 749.607 247.171C740.907 242.829 731.838 237.803 722.957 233.878C717.305 231.381 715.767 227.51 715.803 221.911C715.913 204.897 715.668 187.156 716.323 169.019C721.517 168.158 722.611 171.53 727.127 171.8C736.296 172.349 745.467 164.169 753.224 170.901C754.791 172.261 757.71 175.221 759.521 176.3Z" fill="#FCA199"/>
<path d="M354.563 160.102C359.299 178.197 364.554 195.839 368.96 214.014C370.519 220.448 362.012 235.688 356.361 239.211C352.608 241.552 349.9 243.58 346.462 246.411C341.225 250.723 336.849 250.746 334.861 243.88C328.83 223.047 322.34 202.007 316.467 181.129C315.665 178.279 314.902 174.303 314.965 170.819C319.845 177.663 325.251 175.696 330.391 172.471C337.929 167.742 341.802 154.784 354.563 160.102Z" fill="#FCA199"/>
<path d="M395.959 1103.2C397.918 1092.62 410.996 1085.22 424.979 1081.11C450.563 1073.58 476.788 1078.88 502.286 1074.64C534.547 1060.01 561.594 1044.05 598.978 1047.71C609.544 1048.74 620.452 1051.53 631.732 1053.64C629.484 1057.27 627.495 1063.37 622.73 1063.61C589.222 1056.79 559.406 1059.15 530.939 1080.7C526.946 1083.73 522.139 1086.33 520.141 1090.6C516.537 1098.31 510.114 1099.38 503.942 1096.9C476.083 1085.74 447.564 1084.7 419.273 1092.41C411.335 1094.58 404.131 1099.45 395.959 1103.2Z" fill="#C9787A"/>
<path d="M509.347 833.231C502.663 835.164 495.14 836.272 487.747 837.649C489.151 827.024 497.989 820.707 505.951 815.237C525.314 801.932 547.749 795.867 570.477 792.616C594.331 789.205 618.563 787.36 642.655 787.091C657.635 786.924 674.447 790.735 689.326 793.553C691.942 794.602 693.885 798.974 696.525 801.653C692.472 803.265 687.016 806.443 683.498 805.657C636.75 795.213 590.92 801.775 545.341 812.451C534.477 814.996 525.885 821.226 515.641 826.032C513.429 827.069 510.989 830.364 509.347 833.231Z" fill="#EA9F8F"/>
<path d="M759.521 176.3C757.656 176.052 754.791 172.261 753.224 170.901C745.467 164.169 736.296 172.349 727.127 171.8C722.611 171.53 721.479 169.002 716.323 169.019C715.13 160.199 714.398 150.213 714.523 140.222C729.69 129.023 737.835 128.632 755.921 136.704C757.016 149.234 758.48 162.939 759.521 176.3Z" fill="#F68A8A"/>
<path d="M354.563 160.102C341.778 155.544 337.929 167.742 330.391 172.471C325.251 175.696 319.784 178.382 314.965 170.819C313.121 160.364 311.909 149.588 311.366 138.422C325.43 125.657 335.82 132.412 350.964 136.704C352.197 144.013 353.353 152.034 354.563 160.102Z" fill="#F68A8A"/>
<path fill-rule="evenodd" clip-rule="evenodd" d="M867.509 500.347C887.437 509.18 902.609 528.163 902.612 548.779C906.208 574.058 898.109 585.757 893.613 589.275C890.01 594.756 856.05 610.723 852.218 610.723C846.814 611.854 821.645 612.847 806.322 614.472C803.602 631.211 829.716 655.949 831.516 667.648C835.629 675.069 837.818 681.305 837.819 684.665C837.819 684.665 905.55 1026.97 825.221 1174.21C777.667 1277.27 639.279 1255.97 547.254 1250.51C533.079 1248.62 514.333 1243.99 495.851 1238.51C461.535 1228.34 428.125 1215.2 426.553 1211.11C426.037 1201.3 427.5 1197.67 428.353 1193.11C428.65 1191.52 430.155 1187.79 430.155 1187.79C450.26 1191.18 469.271 1198.74 487.232 1208.06C497.808 1213.55 510.679 1215.36 522.127 1216.97C532.457 1218.43 542.768 1219.97 553.075 1221.59L553.078 1221.59C562.088 1223 571.705 1224.58 580.73 1225.89C600.294 1228.74 626.606 1229.66 646.341 1227.94C654.147 1227.26 662 1226.97 669.849 1226.77H669.852C678.904 1226.54 688.562 1226.47 697.536 1225.5C705.707 1224.62 712.829 1219.89 720.861 1217.26C736.123 1210.37 763.783 1206.05 779.532 1185.52C789.073 1173.03 801.893 1156.89 804.197 1138.3C806.226 1121.92 805.416 1103.28 807.352 1089.15C807.917 1078.49 807.84 1067.74 807.719 1057.07V1057.07C807.641 1050.18 807.563 1043.3 807.68 1036.42C807.821 1028.15 808.129 1019.88 808.437 1011.61C808.847 1000.62 809.256 989.633 809.274 978.642C809.293 966.291 808.734 953.938 808.175 941.586C807.086 917.523 806.033 898.68 806.839 875.024C807.103 867.262 807.367 859.5 807.402 851.737C807.439 843.421 805.81 835.093 805.912 826.783C806.153 807.088 806.673 787.396 807.192 767.705L807.192 767.701C807.335 762.285 807.478 756.868 807.615 751.452C807.762 745.654 807.968 739.857 808.175 734.059L808.175 734.045C808.58 722.66 808.986 711.274 808.94 699.891C808.859 679.814 808.174 659.727 807.128 639.677C806.563 628.846 790.9 617.725 793.44 607.088C792.992 599.611 797.619 596.539 803.738 595.89C821.314 594.025 838.371 591.679 854.881 583.713C874.482 574.255 883.904 565.777 884.607 544.443C884.607 537.244 874.315 509.998 867.509 500.347Z" fill="#FDC5A6"/>
<path d="M647.93 991.533C651.53 990.633 718.123 967.235 721.62 965.42C724.422 963.965 728.83 960.731 733.421 959.136C735.479 960.535 737.709 962.701 738.818 963.717C737.453 966.881 734.794 968.895 732.524 971.816C723.513 986.043 672.746 995.737 656.929 1000.53C653.648 997.352 650.043 994.397 647.93 991.533Z" fill="#C9787A"/>
<path d="M755.921 136.704C737.835 128.632 729.69 129.023 714.523 140.222C715.118 134.633 715.608 128.323 718.195 123.395C721.603 116.902 728.74 112.375 737.021 114.125C748.671 116.587 753.553 123.395 755.921 136.704Z" fill="#C9787A"/>
<path d="M350.964 136.704C335.82 132.412 325.43 125.657 311.366 138.422C311.083 135.275 311.189 128.82 312.271 125.905C313.71 122.029 322.17 111.507 331.155 113.582C342.657 114.735 348.671 126.518 350.964 136.704Z" fill="#C9787A"/>
<path d="M515.641 988.915C514.608 991.67 512.929 993.948 510.245 996.932C491.94 996.552 474.46 996.946 456.989 996.036C456.955 993.818 457.239 989.081 457.148 986.215C476.494 986.118 495.419 988.063 515.641 988.915Z" fill="#A8A3A7"/>
<path d="M36.8943 1166.11C40.714 1152.66 51.0753 1144.4 62.8369 1136.1C68.0537 1133.38 72.2663 1131.2 77.276 1128.95C100.998 1124.6 110.197 1128.88 118.6 1150.35C122.332 1159.88 124.532 1170.35 125.985 1180.51C115.898 1186.22 104.961 1191.92 95.7368 1197.9C84.5601 1205.14 61.534 1202.76 51.3745 1194.19C42.4585 1186.68 39.6954 1176.31 36.8943 1166.11Z" fill="#6A4C50"/>
<path fill-rule="evenodd" clip-rule="evenodd" d="M377.921 337.772C379.89 341.989 383.993 343.682 383.993 343.682C387.061 342.22 392.746 347.547 396.602 350.277C396.871 350.467 396.323 350.08 396.602 350.277C411.825 360.963 427.438 371.824 444.412 379.098C465.398 388.091 487.98 391.336 511.37 391.141C542.864 390.878 573.257 387.224 600.765 371.28C614.789 363.151 627.687 353.184 640.731 343.601L655.765 343.682C657.843 336.644 659.521 328.108 661.429 321.103C663.449 313.688 663.996 311.383 665.929 302.205C658.734 312.186 640.101 323.354 629.937 328.384C629.937 328.384 597.541 359.881 504.171 357.987C465.459 357.202 428.013 345.106 404.87 325.721C390.562 311.286 358.942 255.491 358.942 255.491C356.361 267.998 357.538 286.05 360.615 295.934C365.073 310.257 371.507 324.035 377.921 337.772Z" fill="#EA9F8F"/>
<path fill-rule="evenodd" clip-rule="evenodd" d="M793.443 414.775C796.42 447.171 800.916 465.251 800.916 465.251C807.216 484.953 821.299 482.007 845.012 489.548C836.234 464.023 831.422 453.945 815.566 431.879C812.432 427.517 816.612 407.673 821.617 407.037C834.184 405.439 834.021 404.277 846.728 405.866C856.242 407.057 864.813 404.876 873.336 399.159C881.739 395.794 885.845 388.732 889.944 381.682C894.513 373.823 901.541 369.198 902.852 360.503L902.855 360.484L902.855 360.482C904.056 352.517 905.159 345.161 908.904 340.001C906.075 331.514 892.81 316.587 883.708 313.086C884.318 320.152 884.51 327.223 885.298 334.307C885.983 340.456 886.664 346.688 886.58 352.826C886.356 369.241 867.958 379.413 854.878 386.959C844.24 393.097 829.374 388.564 818.018 389.577C791.02 389.577 793.443 414.775 793.443 414.775Z" fill="#FDC5A6"/>
<path fill-rule="evenodd" clip-rule="evenodd" d="M363.56 244.611C365.993 250.134 367.856 255.843 370.636 261.252C382.923 285.158 405.884 300.182 427.453 314.804C439.264 322.81 450.714 327.515 464.569 331.848C521.304 349.591 576.024 335.152 629.932 316.604C634.522 312.393 676.732 283.389 665.929 302.205C658.808 314.606 642.409 322.212 629.937 328.384C629.937 328.384 611.039 349.082 540.847 357.987C495.911 359.596 440.218 357.246 404.87 325.721C397.762 321.185 359.066 259.091 358.942 255.491C359.066 252.792 362.289 244.853 363.56 244.611Z" fill="#FDC5A6"/>
<path fill-rule="evenodd" clip-rule="evenodd" d="M751.419 936.639C734.417 941.295 717.662 946.885 700.602 951.305C662.482 961.149 616.414 969.194 577.95 957.466C574.328 956.361 570.664 955.37 566.995 954.377C554.575 951.018 541.683 947.64 530.536 939.771C529.158 941.061 527.871 942.497 526.575 943.944C522.022 949.026 516.715 954.271 507.546 953.737C509.895 958.893 513.101 963.971 517.02 967.638C519.655 970.104 523.053 971.772 526.436 973.432C527.666 974.036 528.895 974.639 530.084 975.279C536.515 978.74 542.97 982.157 549.425 985.573C552.084 986.98 554.742 988.387 557.398 989.797C566.443 989.929 577.767 993.062 587.637 993.333C608.908 993.833 627.712 995.751 647.93 991.533C674.083 986.076 698.679 977.458 721.62 965.42C725.539 963.363 729.354 961.012 733.421 959.136C734.808 960.613 737.206 962.916 738.818 963.717C745.266 956.925 750.238 950.795 750.522 946.7C750.805 942.606 751.468 938.197 751.419 936.639Z" fill="#EA9F8F"/>
<path d="M36.8943 1166.11C40.0791 1175.76 42.4585 1186.68 51.3745 1194.19C61.534 1202.76 84.5601 1205.14 95.7368 1197.9C104.961 1191.92 122.391 1181.49 125.959 1180.51C126.89 1182.39 124.095 1204.88 123.913 1208.86C123.315 1221.98 115.172 1233.7 102.596 1238.11C74.6655 1234.42 52.4271 1222.17 38.9951 1196.92C33.9716 1187.48 33.219 1176.82 36.8943 1166.11Z" fill="#542F3F"/>
<path d="M77.276 1128.95C79.9183 1124.5 82.5035 1118.74 86.9469 1115.67C105.868 1102.62 127.481 1094.9 151.182 1090.52C155.419 1090.7 158.711 1090.98 161.981 1092.32C166.141 1094.98 170.556 1099.37 174.587 1101.32L198.883 1113.1L228.582 1139.12C228.582 1139.12 244.08 1160.19 242.116 1172.5C239.734 1184.09 196.92 1186.54 189.265 1187.27C172.385 1188.9 155.639 1184.2 138.899 1182.91C135.699 1182.67 127.43 1183.62 125.985 1180.51C123.659 1169.92 122.332 1159.88 118.6 1150.35C110.197 1128.88 100.998 1124.6 77.276 1128.95Z" fill="#FFD8AF"/>
<path fill-rule="evenodd" clip-rule="evenodd" d="M125.085 1194.91C123.787 1194.97 125.67 1187 125.743 1186.11C125.842 1184.93 125.959 1180.51 125.959 1180.51C128.69 1181.49 134.64 1182.58 138.897 1182.91C155.636 1184.2 172.385 1188.9 189.265 1187.27C196.484 1186.58 240.171 1181.96 242.116 1172.5C244.08 1160.19 228.582 1139.12 228.582 1139.12C228.582 1139.12 254.677 1163.5 256.479 1175.11C257.873 1178.67 259.176 1182.39 259.333 1185.61C262.523 1194.77 258.271 1201.07 247.888 1201.68C237.225 1202.29 227.281 1205.59 216.704 1206.22C198.715 1207.3 180.624 1207.44 162.594 1207.48C153.456 1207.51 144.455 1206.03 135.32 1206.03C128.542 1206.03 125.991 1200.06 125.085 1194.91Z" fill="#FDC5A6"/>
<path d="M170.972 1091.9C182.256 1097.3 189.91 1104.43 198.883 1113.1C175.485 1107.7 181.889 1104.85 174.587 1101.32C170.556 1099.37 165.387 1095.07 161.981 1092.32C165.093 1091.57 168.447 1091.93 170.972 1091.9Z" fill="#FDC5A6"/>
<path fill-rule="evenodd" clip-rule="evenodd" d="M874.074 824.091L874.075 824.004V824.001C875.607 800.628 874.455 763.923 873.391 738.06V738.056C873.041 729.533 872.691 721.01 872.662 712.486C872.633 704.001 872.838 695.513 873.043 687.025C873.327 675.225 873.612 663.427 873.269 651.645C873.048 644.05 874.132 639.736 881.275 636.069C917.043 617.704 932.032 572.641 915.641 535.998C907.89 518.668 895.39 505.909 880.08 495.568C874.236 491.62 871.72 487.104 872.139 479.918C872.748 469.477 872.768 458.938 872.067 448.506C871.577 441.217 874.036 437.298 880.529 433.935C914.637 416.266 928.356 371.496 908.904 340.001C901.709 344.582 903.779 354.602 902.886 360.523L902.886 360.525L902.886 360.527L902.885 360.529L902.885 360.531L902.855 360.482C899.909 369.779 894.47 373.981 889.976 381.71C885.877 388.76 878.503 396.297 873.369 399.187C863.013 402.176 857.465 407.233 846.761 405.894C825.712 403.261 801.819 403.976 815.566 431.879C831.385 453.893 835.359 464.476 845.012 489.548L867.509 500.347C867.509 500.347 902.603 520.038 902.612 548.779C900.735 569.737 899.009 582.157 893.613 589.275C888.21 594.756 861.213 608.254 852.218 610.723C845.015 611.854 819.636 613.059 806.314 614.472C803.524 631.637 823.952 654 831.516 667.648C831.516 667.648 837.287 678.63 837.819 684.665C838.809 706.403 836.551 729.48 836.318 751.283C836.142 767.744 834.599 784.159 834.83 800.628C834.987 811.773 835.909 822.87 836.271 834.002V834.01C836.758 842.447 837.245 850.887 837.52 859.331C838.039 875.266 836.679 891.081 837.56 907.094C838.04 915.833 838.52 924.571 838.653 933.314C839.348 979.158 848.464 1036.98 836.987 1081.67C834.216 1097.8 838.459 1120.95 836.576 1138.02C833.394 1166.86 817.353 1192.77 794.806 1210.63C779.484 1222.77 763.762 1234.22 743.612 1238.11C737.121 1239.37 730.77 1241.42 724.426 1243.47C717.063 1245.85 709.71 1248.22 702.157 1249.34C691.663 1250.9 680.971 1251.09 670.273 1251.27H670.27C664.781 1251.37 659.29 1251.47 653.823 1251.75C648.574 1252.02 643.325 1252.46 638.077 1252.89C628.801 1253.66 619.529 1254.43 610.268 1254.29C589.234 1253.95 547.254 1250.51 547.254 1250.51C529.386 1248.03 513.432 1242.88 495.851 1238.51C486.155 1236.1 475.38 1231.94 466.149 1228.21C463.307 1227.06 453.818 1223.63 450.851 1222.81C443.001 1220.64 443.396 1217.13 435.689 1214.79C432.605 1213.86 429.421 1212.66 426.553 1211.11C419.419 1222.99 415.176 1239.12 401.295 1244.79C400.069 1245.4 397.796 1246.31 395.998 1247.14C370.433 1237.24 352.508 1215.28 336.563 1193.11C336.563 1193.11 332.533 1173.13 337.903 1160.26C342.058 1153.45 350.061 1139.12 350.061 1139.12C350.061 1139.12 370.049 1130.31 379.761 1124.8C385.669 1116.92 391.596 1109.95 396.857 1103.12C399.436 1092.28 411.183 1085.49 425.114 1081.34C439.725 1076.99 454.547 1076.89 469.322 1076.79C480.32 1076.72 491.445 1076.46 502.286 1074.64C507.194 1073.81 511.653 1071.53 516.285 1069.06C540.896 1055.94 570.851 1044.92 598.978 1047.71C606.158 1048.42 613.259 1049.93 620.615 1051.5L620.619 1051.5C624.046 1052.23 628.161 1052.96 631.732 1053.64C629.642 1053.67 623.74 1061.57 622.73 1063.61C622.691 1064.85 660.452 1078.34 663.375 1079.77C673.436 1084.8 683.58 1089.62 693.794 1094.33C697.321 1095.96 701.794 1094.37 705.524 1094.33C705.524 1082.42 687.162 1075.98 675.824 1069.93C664.962 1064.13 655.506 1059.76 644.328 1054.61C649.08 1050.48 657.536 1042.09 657.536 1042.09C677.098 1025.61 697.24 1008.88 716.745 991.335C722.945 985.757 727.405 978.361 732.524 971.816C707.659 982.444 682.57 991.885 656.929 1000.53C654.765 1011.72 651.607 1022.59 639.473 1026.15C639.473 1026.15 619.264 1030.71 609.058 1032.87C603.519 1034.04 597.986 1035.25 592.452 1036.46C576.442 1039.97 560.428 1043.47 544.26 1045.96C535.295 1047.34 526.426 1049.44 517.532 1051.54L517.525 1051.54C497.922 1056.17 478.158 1061.34 456.989 1058.46C448.43 1058.23 440.275 1059.97 431.815 1060C367.669 1060.21 303.524 1060.07 239.378 1060.13C239.186 1069.79 238.832 1079.26 238.832 1088.92C202.956 1088.92 204.116 1088.93 203.701 1088.91C193.163 1089.09 181.924 1090.58 170.972 1091.9C181.195 1099.09 189.984 1103.7 198.883 1113.1L228.582 1139.12C228.582 1139.12 254.677 1165.3 256.479 1175.11C257.812 1178.51 258.318 1182.11 259.333 1185.61C261.876 1194.99 258.271 1201.07 247.888 1201.68C237.317 1202.29 227.192 1205.59 216.704 1206.22C189.395 1207.86 162.52 1206.03 135.32 1206.03C127.921 1206.03 128.911 1193.9 125.085 1194.91C123.977 1199.66 124.145 1203.78 123.913 1208.86C123.315 1221.98 115.069 1233.08 102.587 1238.11C106.135 1241.51 109.178 1246.8 114.804 1247.14C128.495 1247.95 137.472 1254.58 143.629 1266.15C161.932 1300.53 228.107 1299.22 256.064 1282.98C266.468 1276.93 275.446 1268.92 285.093 1261.8C289.537 1268.01 293.433 1274.62 298.511 1280.36C324.94 1310.23 358.176 1319.89 396.494 1310.93C409.15 1307.97 422.116 1303.85 431.091 1293.03L431.093 1293.03L431.266 1292.91C434.911 1290.38 439.561 1287.16 442.593 1284.23L442.781 1284.34C445.245 1285.24 447.649 1286.18 450.014 1287.11L450.022 1287.12L450.034 1287.12L450.036 1287.12L450.039 1287.12C457.133 1289.92 463.877 1292.57 470.848 1293.48C483.987 1295.21 495.16 1297.92 498.641 1312.81C503.381 1333.09 539.648 1346.27 556.954 1348.79C585.077 1352.89 610.241 1346.77 631.207 1326.91C636.559 1321.84 641.11 1315.92 648.848 1307.22C656.36 1323.06 668.45 1334.65 685.536 1339.92C707.182 1346.6 729.442 1347.33 751.098 1337.37C774.487 1326.61 791.142 1310.84 795.1 1284.14C795.415 1282.02 797.689 1279.28 799.715 1278.46C816.97 1271.42 831.249 1260.32 843.463 1246.57C857.987 1230.21 867.611 1211.19 872.457 1189.81C889.78 1190.4 908.42 1200.61 921.79 1181.84C925.166 1177.1 927.808 1176.2 932.666 1179.11C949.54 1189.22 967.255 1190.29 985.972 1184.55C1005.97 1178.42 1022.96 1157.17 1021.6 1136.34C1020.99 1127 1016.5 1118.45 1013.81 1109.62C1013.85 1109.58 1013.89 1109.54 1013.94 1109.5C1028.57 1096.87 1041.71 1081.21 1047.21 1062.35C1055.12 1040.51 1060.83 1019.55 1055.63 996.06L1039.46 1044.71L1020 1075.64L973.591 1106.99L932.174 1105.16L910.709 1095.02L901.71 1086.02L893.611 1025.73L891.845 969.963C886.962 973.506 882.463 977.142 878.196 980.613C878.162 980.523 878.122 980.452 878.074 980.404C877.406 928.539 874.074 876.63 874.074 824.091Z" fill="#EA9F8F"/>
<path d="M239.378 1060.13C239.378 1069.24 238.832 1080.23 238.832 1088.92C228.035 1088.92 216.272 1088.89 203.701 1088.91C192.392 1089.76 181.924 1090.58 170.972 1091.9C167.963 1092.43 165.437 1092.46 162.157 1092.58C158.302 1091.95 154.989 1091.25 151.182 1090.52C153.129 1083.16 157.203 1078.35 163.933 1075.56C182.406 1067.9 210.576 1070.72 219.575 1068.92C222.408 1068.3 225.881 1066.59 228.574 1065.32C227.68 1062.71 222.168 1062.03 220.153 1060.01C223.753 1060.01 237.579 1060.13 239.378 1060.13Z" fill="#C9787A"/>
<path fill-rule="evenodd" clip-rule="evenodd" d="M282.571 610.054C289.452 605.866 284.912 602.143 280.769 600.074C258.012 588.708 224.883 578.622 223.175 548.779C222.691 540.326 222.533 531.688 221.375 523.582C217.155 532.218 212.471 541.382 208.776 549.679C210.194 551.136 212.116 551.789 213.112 553.837C217.614 563.1 226.198 582.508 226.198 582.508C226.186 582.514 229.874 586.781 229.868 587.5C233.047 593.82 235.354 594.47 240.411 598.158C245.669 601.992 258.336 606.589 269.972 609.154C273.272 605.092 278.585 607.901 282.571 610.054Z" fill="#FDC5A6"/>
<path fill-rule="evenodd" clip-rule="evenodd" d="M893.611 1025.73C897.125 1030.34 901.864 1034.14 904.05 1039.65C909.667 1053.83 917.163 1067.73 929.18 1075.84C938.492 1082.12 950.651 1082.75 961.644 1081.87C971.783 1080.61 983.944 1077.67 994.448 1071.43L995.091 1071.05C1006.59 1064.23 1015.51 1053.82 1020.29 1040.56C1021.53 1037.13 1023.97 1033.96 1026.45 1031.2C1035.26 1021.44 1036.72 1009.09 1037.69 997.064C1038.12 991.643 1037.5 986.147 1036.87 980.638C1036.45 976.927 1036.03 973.21 1035.93 969.505C1035.87 967.367 1038.54 965.156 1040.61 962.98C1044.29 967.966 1047.6 973.847 1050.2 979.834C1050.17 979.884 1050.14 979.934 1050.11 979.983C1052.28 985.067 1053.92 989.917 1055.59 996.032C1053.79 1014.11 1046.59 1030.31 1039.46 1044.71C1035.79 1054.61 1025.06 1066.05 1020 1075.64C1017.8 1080.62 985.367 1104.92 973.591 1106.99C959.761 1109.42 946.583 1108.45 932.174 1105.16C922.272 1102.91 916.361 1100.67 910.709 1095.02C907.948 1092.26 904.932 1088.35 901.71 1086.02C887.62 1075.84 882.852 1038.07 893.611 1025.73Z" fill="#FDC5A6"/>
<path d="M689.001 444.885C693.829 451.187 699.368 456.755 702.055 463.465C704.547 469.69 705.441 477.368 704.374 483.976C703.301 490.622 697.79 495.699 690.043 494.946C682.68 494.231 678.528 489.424 677.12 482.15C674.756 469.932 665.825 464.022 654.969 461.338C644.585 458.77 634.767 462.186 628.779 470.966C624.94 476.595 623.939 484.159 621.691 491.528C617.281 497.731 612.51 503.221 604.499 499.653C596.656 496.16 594.62 489.202 594.95 481.065C595.872 458.331 616.294 436.374 640.197 431.829C658.522 428.344 674.364 432.898 689.001 444.885Z" fill="#542F3F"/>
<path d="M459.836 514.583C447.161 509.576 440.879 500.514 442.421 490.469C443.055 486.332 446.987 481.802 450.672 479.286C454.318 476.796 457.912 478.333 460.121 483.645C465.282 496.048 475.198 498.017 482.675 488.662C485.776 484.781 485.952 480.992 485.952 480.992C478.152 477.76 469.798 468.087 471.861 460.675C473.958 453.138 481.162 452.659 488.252 453.191C493.806 453.607 499.437 453.101 505.028 452.877C512.047 452.597 519.274 451.953 521.78 460.848C523.795 468.002 519.849 475.193 512.089 478.975C510.521 479.739 508.818 480.227 506.78 480.992C509.398 488.566 513.798 493.761 521.709 492.849C525.286 492.437 530.12 489.55 531.534 486.476C534.686 479.62 538.167 474.818 546.312 477.318C553.447 479.509 557.128 488.467 553.445 496.006C550.746 502.066 545.346 505.665 542.646 507.465L531.534 510.665C529.963 510.665 505.538 514.683 496.612 500.702C486.597 512.562 473.092 514.545 459.836 514.583Z" fill="#542F3F"/>
<path d="M543.541 530.781C548.036 553.668 540.884 579.086 522.915 591.069C506.683 601.893 479.559 600.235 468.849 573.977C469.754 564.159 481.179 539.651 494.946 534.381C505.567 533.752 515.83 533.46 525.703 532.726C531.526 532.294 537.732 531.393 543.541 530.781Z" fill="#FCA199"/>
<path d="M345.769 470.921C337.94 471.333 332.314 467.829 333.483 457.809C336.813 435.234 362.956 427.433 380.783 430.776C403.928 435.115 420.325 449.085 426.749 472.638C427.967 477.1 428.358 478.085 428.358 486.476C428.358 494.866 422.959 502.066 413.06 502.066C403.161 502.066 398.574 487.427 397.185 480.654C395.946 477.4 394.878 475.379 393.811 473.357C387.181 462.497 375.062 457.725 362.883 462.063C357.828 465.031 351.661 470.611 345.769 470.921Z" fill="#542F3F"/>
<path d="M656.035 516.383C672.675 516.383 683.932 531.531 683.932 543.94C683.932 562.764 669.263 573.977 656.035 573.977C642.649 573.977 625.438 561.535 625.438 543.94C625.438 523.141 641.141 516.383 656.035 516.383Z" fill="#FCA199"/>
<path d="M370.765 575.858C350.967 575.858 340.168 560.905 340.168 547.061C340.168 528.981 356.366 518.264 370.765 518.264C385.163 518.264 398.662 530.927 398.662 547.061C398.662 560.905 390.562 575.858 370.765 575.858Z" fill="#FCA199"/>
<path d="M494.946 534.381C507.242 521.942 525.219 520.32 542.646 518.264C542.646 518.264 543.372 526.321 543.541 530.781C537.669 532.184 531.526 532.294 525.703 532.726C515.83 533.46 505.567 533.752 494.946 534.381Z" fill="#F68A8A"/>
<path fill-rule="evenodd" clip-rule="evenodd" d="M494.946 534.381C510.25 520.964 526.415 520.752 542.646 518.264C542.649 516.93 542.652 510.671 542.646 507.465L531.534 510.665C529.963 510.665 505.538 514.683 496.612 500.702C487.08 511.99 473.658 513.684 459.836 514.583C460.426 528.485 460.91 541.101 461.65 554.179C461.65 555.978 467.728 571.629 468.849 573.977C471.779 559.216 483.511 538.758 494.946 534.381Z" fill="#C9787A"/>
<path fill-rule="evenodd" clip-rule="evenodd" d="M403.158 734.241C396.272 739.785 389.282 744.36 383.359 750.358C398.495 833.652 408.496 919.71 431.053 1001.43C430.326 1024.55 422.849 1033.05 400.402 1033.14C399.177 1033.15 397.951 1033.14 396.725 1033.14C395.851 1033.14 394.977 1033.13 394.104 1033.13L317.318 1033.15C270.223 1033.16 223.127 1033.17 176.032 1033.17C167.03 1033.17 158.028 1033.17 149.026 1033.16C126.748 1033.15 104.469 1033.13 82.191 1033.23C74.8354 1033.26 67.9452 1033.02 62.2465 1027.21C60.4801 1025.41 57.1317 1025.72 54.9662 1026C62.5174 1047.89 77.262 1059.21 99.599 1059.41C119.176 1059.58 138.754 1059.69 158.333 1059.79C166.773 1059.84 175.214 1059.88 183.654 1059.93C183.654 1059.93 200.865 1060.06 220.153 1060.01C290.658 1061.18 361.306 1060.23 431.815 1060C435.633 1059.98 457.136 1058.09 456.989 1058.46C478.158 1061.34 497.887 1056.68 517.49 1052.05C526.387 1049.95 535.258 1047.85 544.226 1046.47C560.394 1043.98 576.442 1039.97 592.452 1036.46C597.986 1035.25 603.519 1034.04 609.058 1032.87C609.058 1032.87 631.836 1028.38 639.473 1026.15C651.607 1022.59 655.934 1012.03 656.929 1000.53C654.332 997.336 650.874 994.362 647.93 991.533C617.639 991.068 587.106 990.114 556.743 989.841C542.81 989.643 528.921 989.156 515.641 988.915C513.791 991.369 512.086 993.799 510.245 996.932C514.471 998.784 518.889 1000.11 523.141 1001.89C537.543 1003.11 554.693 1004.26 569.949 1004.93C569.955 1004.96 569.961 1004.98 569.968 1005.01L583.137 1007.73C580.081 1008.47 577.69 1009.54 575.049 1010.2C569.695 1011.55 565.017 1012.73 560.295 1013.7C556.186 1014.54 552.073 1015.36 547.953 1016.19C536.787 1018.43 525.191 1020.39 513.844 1023.03C513.844 1023.03 518.781 1030.16 521.943 1034.73C521.943 1034.73 517.186 1043.71 512.05 1044.71C500.351 1041.11 500.346 1041.03 501.246 1026.63C490.216 1026.16 476.946 1026.44 464.349 1026.63C461.65 1023.93 459.85 1019.43 458.95 1016.73C457.936 1009.39 457.61 1003.69 456.989 996.036C456.963 993.009 457.648 989.679 457.148 986.215C453.63 970.695 449.323 957.193 446.46 942.882C441.685 919.016 436.936 895.144 432.188 871.273C424.664 833.449 417.14 795.625 409.51 757.822C407.878 749.738 406.082 742.002 403.158 734.241Z" fill="#8B7887"/>
<path d="M583.137 1007.73C576.838 1011.33 567.689 1012.59 560.639 1014.03C545.393 1017.15 530.084 1019.31 513.844 1023.03C509.192 1024.49 504.934 1025.91 501.246 1026.63C489.177 1026.87 477.093 1026.7 464.349 1026.63C461.65 1023.93 459.85 1020.33 458.95 1016.73C480.396 1011.36 501.999 1006.61 523.141 1001.89C541.139 1002.64 566.401 999.363 583.137 1007.73Z" fill="#BEB2BD"/>
<path d="M523.141 1001.89C502.154 1007.27 480.781 1011.87 458.95 1016.73C457.632 1010.03 457.61 1003.69 456.989 996.036C474.468 996.137 491.93 995.874 510.245 996.932C515.176 998.198 518.897 1000.12 523.141 1001.89Z" fill="#542F3F"/>
<path fill-rule="evenodd" clip-rule="evenodd" d="M751.419 936.639C751.008 938.683 750.522 946.7 750.522 946.7C755.921 945.8 757.594 939.784 757.721 938.601C757.814 937.726 757.593 939.568 757.721 938.601C759.521 935.902 759.441 925.688 757.261 923.476C753.554 919.716 746.271 917.382 740.855 917.908C733.182 918.654 725.467 925.412 718.39 924.543C706.808 923.123 696.448 926.438 686.216 929.793C682.294 931.079 678.389 932.439 674.444 933.439C647.163 940.352 620.132 936.611 593.275 934.699C580.508 933.79 567.946 929.974 555.381 926.239C549.765 924.57 544.181 921.939 538.546 920.522C536.123 927.038 532.795 933.194 530.536 939.771C541.683 947.64 554.575 951.018 566.995 954.377C570.664 955.37 574.328 956.361 577.95 957.466C616.414 969.194 662.482 961.149 700.602 951.305C717.279 947 742.425 939.42 751.419 936.639Z" fill="#FDC5A6"/>
<path d="M501.246 1026.63C501.246 1026.63 509.45 1023.86 513.844 1023.03C521.943 1023.03 521.942 1031.68 521.943 1034.73C521.949 1043.81 514.855 1044.16 512.05 1044.71C500.351 1045.61 496.553 1033.92 501.246 1026.63Z" fill="#542F3F"/>
<path d="M891.812 969.935C903.772 960.33 927.286 967.244 936.025 975.426C939.833 978.991 942.766 982.843 947.606 987.933C955.849 961.142 972.328 945.293 999.713 943.138C1016.91 941.784 1030.65 948.916 1040.61 962.98C1038.73 965.715 1035.87 967.367 1035.93 969.505C1036.18 978.711 1038.42 987.992 1037.69 997.064C1036.72 1009.09 1035.26 1021.44 1026.45 1031.2C1023.97 1033.96 1021.53 1037.13 1020.29 1040.56C1015.51 1053.82 1006.59 1064.23 995.091 1071.05C976.957 1081.82 948.42 1088.82 929.18 1075.84C917.163 1067.73 909.667 1053.83 904.05 1039.65C902.012 1034.51 897.086 1031.1 893.611 1025.73C893.082 1006.85 892.351 988.009 891.812 969.935Z" fill="#FFD8AF"/>
<path d="M350.061 1139.12C356.366 1134.7 370.281 1129.71 379.761 1124.8C388.213 1124.39 395.817 1123.87 403.299 1125.92C415.77 1129.35 423.034 1139.6 425.722 1151.71C428.213 1162.94 428.851 1175.45 430.155 1187.79C430.155 1187.79 429.466 1191.52 428.353 1193.11C422.992 1194.21 418.01 1194.32 413.932 1196.31C408.817 1198.81 404.658 1204.36 399.463 1205.36C391.279 1206.94 382.475 1206.68 374.11 1205.7C356.155 1203.59 340.208 1185.33 339.563 1167.51C339.483 1165.29 338.504 1163.13 337.903 1160.26C342.356 1152.96 344.667 1143.7 350.061 1139.12Z" fill="#6A4C50"/>
<path d="M426.553 1211.11C422.954 1228.87 409.295 1245 395.998 1247.14C392.144 1246.04 389.109 1245.1 384.949 1243.28C362.392 1231.66 346.29 1216.42 336.563 1193.11C333.765 1181.85 333.407 1170.33 337.903 1160.26C337.903 1160.26 349.471 1202.8 374.11 1205.7C382.475 1206.68 391.279 1206.94 399.463 1205.36C404.658 1204.36 408.817 1198.81 413.932 1196.31C418.01 1194.32 423.387 1193.73 428.353 1193.11C429.912 1198.26 427.573 1206.08 426.553 1211.11Z" fill="#542F3F"/>
<path d="M265.136 877.272C264.85 876.507 264.337 875.849 263.667 875.383C262.997 874.918 262.2 874.668 261.384 874.668H213.089L240.946 820.506C241.262 819.896 241.415 819.215 241.391 818.529C241.366 817.842 241.166 817.174 240.808 816.588C240.45 816.002 239.947 815.518 239.348 815.183C238.749 814.848 238.073 814.672 237.387 814.674C236.428 814.675 235.501 815.02 234.775 815.646L146.784 891.638C146.167 892.171 145.727 892.881 145.524 893.671C145.321 894.461 145.364 895.294 145.649 896.059C145.933 896.824 146.444 897.484 147.114 897.949C147.784 898.415 148.58 898.665 149.396 898.665H197.691L169.834 952.828C169.518 953.438 169.365 954.118 169.39 954.805C169.414 955.491 169.614 956.159 169.972 956.745C170.33 957.331 170.833 957.815 171.432 958.151C172.031 958.486 172.707 958.661 173.393 958.659C174.352 958.659 175.279 958.314 176.005 957.687L263.996 881.695C264.615 881.162 265.056 880.453 265.259 879.662C265.463 878.871 265.42 878.037 265.136 877.272Z" fill="#FFBD5D"/>
</svg>
